<?xml version="1.0" encoding="utf-8"?>
<!-- Generator: Adobe Illustrator 23.0.1, SVG Export Plug-In . SVG Version: 6.00 Build 0)  -->
<svg version="1.1" id="Capa_1" xmlns="http://www.w3.org/2000/svg" xmlns:xlink="http://www.w3.org/1999/xlink" x="0px" y="0px"
	 viewBox="0 0 1138 925" style="enable-background:new 0 0 1138 925;" xml:space="preserve">
<style type="text/css">
	.st0{fill:#FFFFFF;}
</style>
<g>
	<g>
		<path class="st0" d="M428.6,576.1c0-0.7,0-1.4-0.1-2c-0.3-0.3-0.7-0.4-0.9-0.7L428.6,576.1z"/>
		<path class="st0" d="M594.8,56c-70.9,0-136.2,24.3-187.7,65c0.5,0.3,1.2,0.5,1.9,0.8c4.6,1.2,9.2,3.6,12.1,6.5l0,0
			c-0.8-0.8-1.6-1.4-1.8-1.5l0.5,0.4c1.2,0.8,4.7,1.8,6.1,3.1c1.4,1.4-6.9,2.7,6.5,5.4l0,0c0-3.8,6.8-5.8,12.2-5.8
			c0.3,0-0.5,0-0.1,0c2.4-1.6,4.5-3.4,7.1-4.9c11.5,6.9,23.6,13,36.5,18.2c-7.1,29.8-12.9,62.7-16.8,97.9
			c-16.4-5.5-31.9-12.2-45.8-19.6c-0.1,0.8-0.4,1.5-0.7,2.3l-0.5,1.2c0,0.4,0,0.8,0,1.2c1.2,4.9,0.5,9.3-0.9,13
			c0.4,0.4,0.8,0.8,1.2,1.1c2.7,2.6,6,5.8,7.9,10.1c1.1,2.2,1.8,4.6,2,7c1.6,2.2,2.7,4.6,3.4,7.3c9.6,3.9,19.7,7.6,30.1,10.7
			c-2,26.3-3.1,53.6-3.1,81.6c0,17,0.4,33.8,1.1,50.1c-39.2-8.9-73.9-21.7-102.7-37.5c-0.1,0.5-0.4,1.2-0.7,1.8
			c-0.5,3.2-1.9,6.2-3.9,8.9c-0.1,0.1-0.3,0.4-0.4,0.5c1.8,2,3.4,4.6,4.2,7.7c1.4,4.2,1.1,8,0.8,10c0,0.3,0,0.7-0.1,0.9
			c0.3,2.7,0,5.3-0.5,7.8c29.3,16.2,65.2,29.3,105.5,38.4c2.3,28,5.7,54.7,10,80c14.6,2.7,29.7,6.2,45.2,10.8
			c-7.3-24.4-13.2-52.7-17.2-83.6c27.9,4.2,57.5,6.3,88,6.3c30.7,0,60.2-2.3,88.3-6.3c-4.7,36.7-12.1,69.7-21.4,97
			c-26.2,4.1-53.6,6.2-81.9,6.2c-0.5,0-1.1,0-1.8,0c3.9,1.8,7.7,3.5,11.7,5.3c5.6,2.6,9.8,7.4,11.7,13.2c1.8,5.5,1.2,11.6-1.5,16.7
			c15.5-0.5,30.7,4.1,45.4,2.3c-14.5,26.9-31.9,48.5-50.3,48.5c-0.1,0-0.3,0-0.4,0c-5.3,0-10.3-7.2-15.3-9.6
			c-5.3,8.8-11.4,15.9-18.2,27.1c11.3,1.2,22.8,0.5,34.5,0.5c167.1,0,302.5-135.6,302.5-302C897.2,191.6,761.7,56,594.8,56z
			 M826.3,211.2c24,37.7,38.9,81.4,41.9,128.6c-32.8,29.7-83.8,53.5-145.4,67.5c0.8-16.3,1.1-33.1,1.1-50.1
			c0-28.6-1.1-56.6-3.3-83.5C765.8,259.4,802.6,237.5,826.3,211.2z M807.2,184.7c-21.7,22.4-52.6,41.2-89.7,54.4
			c-3.8-33.8-9.2-65.2-16-94c13.8-5.3,27-11.6,39.3-18.8C765.9,142.1,788.3,161.9,807.2,184.7z M708.6,108.8
			c-4.9,2-9.9,3.9-15.1,5.7c-1.4-4.6-2.7-9.2-4.2-13.6C695.8,103.4,702.2,106,708.6,108.8z M594,81.7c0.1,0,0.3,0,0.4,0
			c18.6,0,35.8,17,50.3,43.9c-15.5,2.4-31.5,4.5-47.7,4.5c-18,0-35.7-2.6-52.6-5.7C558.7,98.2,575.6,81.7,594,81.7z M530.5,156.6
			c21.2,4.9,43.4,7.4,66.5,7.4c21.3,0,41.8-2.2,61.6-6.3c9.5,25.7,17.1,57,22.2,92.1c-27.8,6.5-57.9,10-89.4,10
			c-29.4,0-57.6-3.1-83.8-8.8C512.8,215,520.7,182.8,530.5,156.6z M495.5,112.9c-4.2-1.6-8.4-3.2-12.5-5c5.3-2.3,10.6-4.5,16-6.5
			C497.8,105.2,496.6,109,495.5,112.9z M686.2,414.3c-29.2,4.5-60.1,7-92.1,7c-32,0-62.8-2.4-91.8-6.9c-1.4-18.4-2-37.5-2-57.1
			c0-25.1,1.2-49.4,3.4-72.5c27.5,5.5,57,8.5,87.8,8.5c33,0,64.4-3.5,93.5-9.7c2.3,23.5,3.5,48.2,3.5,73.7
			C688.2,376.8,687.5,396,686.2,414.3z M689.3,613.5c3.7-11.3,7.1-23.2,10.2-35.8c37-8.9,70.5-21.9,99-37.8
			C768.9,572.6,731.5,598.1,689.3,613.5z M843,473.2c-33.4,29.2-80.2,52.4-135.2,66.9c5.6-29.3,9.9-60.9,12.8-94.3
			C783,431.9,835,408,868.2,378C865.5,411.8,856.8,443.9,843,473.2z"/>
	</g>
	<g>
		<path class="st0" d="M620.3,882.6"/>
		<path class="st0" d="M620.3,882.6"/>
		<path class="st0" d="M327.3,454c0.3,0,0.7-0.3,0.7-0.7c0-0.3-1.9-2.2-2.6-2.6c-0.3,0,0-0.7,0-0.9c-0.3-0.3-1.2-1.2-1.6-1.6
			c0-0.3-0.7-1.9-0.9-1.9c-0.3-0.3-0.3-0.3-0.3-0.3s-0.7,0-0.9,0c-0.3,0,0,0,0.3-0.3c0-0.7,0.3,0,0.7-0.3c0.3,0,0,0,0-0.7
			c0.3-0.3-0.3-0.5-0.7-0.9c-0.3-0.3-0.7-0.9-0.7-1.2c-0.3-0.3,0-0.7-0.3-0.9c-0.7-0.3-0.7-1.6-0.7-2.2c0-0.3,0-0.7,0-0.7h-0.7
			c-0.3,0.3-1.6,1.6-1.6,1.6s0.7-0.9,0.9-1.2c0-0.3,0-0.3,0.3-0.7c0-0.3,0.3-0.5,0.7-0.5c0.3-0.3,0.3-0.9,0.3-1.6
			c-0.3-0.7-0.3-0.9-0.3-1.6c0-0.7,0-0.7,0.3-1.2c0.3-0.4,0.7-1.6,0.7-2.2c0.3-0.3,0.7-0.3,0.9-0.7c0.3-0.3,1.2-0.3,1.6-0.9
			c0.3-0.3,0.3-0.3,0.7-0.7c0.7,0,0.9-0.3,0.9-0.7c-0.3-0.7-0.7-0.3-0.9-0.7c-0.3-0.3,0.3-0.3,0-0.7c0-0.4-0.3-0.4-0.7-0.4
			c-0.3,0-0.9,0-0.9,0h-0.7c0,0,0.7-0.3,0.9-0.3c0.3-0.3,0.3-0.3,0.3-0.7c0.3-0.3,0-0.9,0-0.9h0.3l0.3,0.7c0,0,0,0.3,0.3,0.7
			c0.3,0.3,0.3,0.7,0.7,0.9c0.3,0,0.7,0.7,0.9,0.9s1.6-0.3,1.9-0.7c0.7-0.3,0.9-1.6,1.2-1.9c0.3-0.3,0.3-0.7,0.7-1.2
			c0.3-0.7,0-2.4,0-2.8c0-0.7,0-0.7,0.3-1.2c0.3-0.3,0.3-1.6,0.3-1.6c0-0.3,0-0.7-0.3-0.7c-0.7,0.3,0,0.7-0.3,0.9
			c0,0.3-0.3,0.7-0.7,0.7c-0.3,0-0.3-0.3,0-0.7c0.3-0.3,0.3-1.2,0.7-1.6c0.3-0.7,0.7-0.7,0.3-1.2c0-0.3,0-0.3,0.3-0.9
			c0.3-0.7,1.9-2.4,2.6-2.8c0.3-0.7,0-0.7,0-0.9c0-0.7,1.2-1.2,1.5-1.6c0.3-0.3,0.3,0,0.7-0.3c0.3-0.4,1.6-1.2,1.9-1.6
			c0.7-0.3,0.9-0.3,0.9-0.7c0.3-0.3,0.7,0,0.9-0.3c0,0,0.3-0.7,0.3-1.2c0-0.3,0.3,0,0.3-0.3c0.3-0.3,0.9-0.7,1.2-1.2
			c0.7-0.3,0.7,0,0.9,0c0.3,0,0.3-0.3,0.3-0.3c0.3-0.3,0-0.3-0.3-0.7c-0.3-0.3,0-0.7,0-0.9h0.7c0.3,0,0.7,0,0.9-0.3
			c0.3-0.7-0.7-1.2-0.9-1.6c-0.3,0-0.7-0.9-0.7-0.9s0.9,0.3,1.2,0c0.3,0,0-0.9,0-1.2c0.3-0.3,0.3-0.7,0.3-1.2c0-0.3,0.3-2.2,0-2.8
			c0-0.3-1.9-2.2-2.6-2.6c-0.3,0-0.7,0.3-0.7,0.7c0,0.3-4.7-0.3-5-0.3s-1.9-1.9-1.9-2.2c-0.3-0.7-3.4-2.2-3.8-2.2
			c-0.7-0.3-1.2-1.6-1.6-2.2c0-0.3-0.7-2.8-0.7-3.1c-0.3-0.7,0-0.7,0-1.2c0.3-0.7,0.3-0.3,0.3-1.2c0-1.2,1.2-1.9,1.6-2.6
			c0-0.3,0-0.3,0-0.9c0-0.7,0.7-0.9,0.9-1.6c0.3-0.3,0-0.7,0-1.2c0-0.3,0.9-0.7,0.9-0.9c0.3-0.3,0.9-0.3,1.2-0.7
			c0.7,0,0.7-0.3,1.2-0.7c0.3-0.3,0.3,0,0.9,0c0.7,0,0-0.3,0-0.3h-0.3c0,0-0.3,0-0.3-0.3c0-0.3,1.2-0.9,2.2-1.2
			c0.7-0.3,0.3,0,0.7-0.3c0.7-0.3,1.2-0.3,1.9-0.3c0.3,0,0.3,0.3,0.7,0.3c0.3,0.3,1.2,0,1.9,0c0.9,0,0.9-0.3,0.9-0.7
			c0-0.3,0.3-0.3,0.7-0.7c0.3-0.3-0.7-0.3-0.7-0.3c-0.3-0.3-0.9,0-1.2-0.3c0-0.3,0.3-0.7,0.3-0.9c0.3-0.3,0-0.9,0-1.2
			c0.3-0.3,0.3-0.3,0.7-0.3c0.7,0,0.3-0.3,0.9-0.7c0.7-0.3,0.7,0,0.9-0.3c0.7-0.3,0.3-0.3,0.3-0.7c0.3-0.3,0.3-0.7,0-0.9
			c-0.3-0.3,0.7-0.9,0.7-1.2c0-0.7-0.7-0.7-0.7-0.9c-0.3-0.3,0-0.3,0-0.7c0.3-0.3,0.3-0.7,0.3-0.9c0-0.7,0.3-0.3,0.3-0.7
			c0.3-0.3-0.9-1.2-1.2-1.6c-0.3-0.3-0.3-0.7-0.3-0.9c0-0.7,0-0.7,0-0.9c-0.3,0,0-0.3-0.3-0.9c0-0.3,0.3-0.3,0.7-0.7
			c0.7-0.7,0.7-0.3,0.7-1.2c0.3-0.7,0.3-0.3,0.9-0.7c0.3-0.3,0-0.5,0.3-1.2c0-0.7,1.2-1.6,1.6-1.9c0.3-0.7,0.9-0.7,1.2-0.7
			c0.3-0.3,0.9-0.7,1.6-0.9c0.7-0.3,1.6-0.9,1.2-1.2c0-0.7-1.2,0-1.6-0.3c-0.7,0-0.9,0-1.2,0c0-0.3-0.3-0.3-0.3-0.3
			c-0.3,0-1.2-0.7-1.9-0.9c-0.7-0.3-0.9,0-1.2,0c-0.3-0.3,0.7-1.2,0.9-1.5c0-0.3,0.3-0.7,0.9-0.7c0.3,0,0.3-0.3,0.9-0.7
			c0.3-0.3,0-0.3,0.7-0.3c0.3,0,0.3,0,0.7-0.3c0.3-0.3,0.3,0,0.9,0.3c0.3,0.3,0.9,0,1.2,0s0.3,0.3,0.3,0.7c0,0.3,0.3,0.3,0.7,0.7
			c0.3,0,0,0.3-0.3,0.7c0,0,0,0.9,0.3,1.6c0,0.3,0.7,0.3,0.9,0.3c0.7,0,0.7,0,0.9-0.3c0.3-0.3,0.7,0,1.2-0.3c0.3,0,0,0,0.7,0
			c0.3-0.3,0.7-0.5,0.7-0.5c0.3-0.3,0.3-0.7,0.3-0.9c0-0.3,0.3-0.9,0.3-1.2c0-0.7,0-0.7-0.3-0.7c0-0.3,0-0.9-0.3-1.5
			c0-0.3,0-0.7,0-0.9c0-0.3-0.3-0.3,0-0.3s0.3,0.3,0.3,0.5c0.3,0,0.3,1.6,0.3,1.9c0,0.3,0.3-0.3,0.3-0.3s0-1.2-0.3-1.6
			c0-0.5-0.3-1.2-0.7-1.6c-0.7-0.3-0.3-0.7-0.7-0.9c-0.3-0.3-0.7-0.3-0.9-0.3s-0.9,0.3-1.2,0.9c-0.7,0.3-1.2,0.7-2.2,0.7
			c-1.2,0.3-0.7,0-0.7,0.3c-0.3,0.4,0.3,0.4,0.7,0.4c0.3,0,0.7-0.4,0.9-0.4c0.3,0.4,0.9,0.4,0.9,0.4s0,0.9,0,1.2
			c-0.3,0.3-0.9,0.3-1.2,0.7c0,0.3-0.7-0.3-0.9-0.3c-0.7,0-0.9,0.3-0.9,0.7c-0.3,0-0.3-0.7-0.7-0.7c-0.7,0-0.7,0.3-0.7,0.3h-0.3
			c-0.3-0.3,0-0.7,0-0.9c0.3-0.3,0.7-0.3,0.7-0.7c0.3,0,0-0.3,0-0.3s-0.9,0-1.2,0c-0.7,0-0.9-0.4-1.5-0.4c-0.7-0.3-1.2-0.7-1.9-1.2
			c-0.7-0.7-0.3-1.6-0.3-1.6s0.3-0.3,0.3-0.5c0-0.3,0-2.8,0-3.1c0-0.3,0.3,0,0.3-0.3c0.3-0.3,0-0.9-0.3-1.2c0-0.3-0.7-0.9-0.7-0.9
			v-1.6v0.3c0-0.3-0.7-0.7-0.7-0.9c0-0.3,0-1.6,0-1.6c0-0.3-0.3-0.3-0.3-0.7c0-0.3,0-1.2,0-1.2l0.3-0.7c0,0,0.3-0.7,0.7-0.9
			c0-0.3,0.7-0.3,0.9-0.3s0-0.3,0.3-0.7c0.3,0,0.3,0.3,0.7,0.3c0.3,0,0,0.3,0,0.3v0.5c0,0,1.2,0.3,1.6,0.3c0.3,0,1.2,0.3,1.6,0.3
			c0.3,0,0.7,0.7,1.2,0.7c0.7,0.3,1.6,0.9,1.6,0.9s0.7,0,0.7,0.3c0.3,0.3,1.2,0.7,1.6,0.9c0.3,0.3,2.2,0.3,2.8,0
			c0.3,0,0.9,0,1.2-0.3c0.3,0,0.7,0,0.7,0s0.7,0,0.9,0c0.3-0.3,0.7,0,0.9,0c0.7,0,0.7-0.3,0.7-0.3s0.3-0.3,0.7-0.7c0,0,0,0,0.3,0
			c0.7,0,0.7,0,0.9-0.7c0-0.3-0.3-0.3-0.3-0.7c0-0.7-0.7-1.2-0.7-1.2l0.9,0.9c0,0.3,0.3,0.9,0.7,0.9c0.3,0.3,0.7,0,0.9-0.3
			c0.3,0,0.7,0,0.9-0.3c0.3-0.3,0.3-0.3,0.3-0.3c0.3-0.3,0.3,0,0.9,0c0.3,0,0.7-0.7,0.9-0.9c0-0.3,0.3-0.9,0.3-1.5
			c0-0.3,0-0.7,0-1.2c0-0.7-0.9-0.7-0.9-0.7v-0.3c-0.3-0.3-0.9-0.3-1.2-0.3c0-0.3,0-0.7,0-0.9s0.3-0.3,0-0.7c-0.3,0-0.3-0.7,0-0.7
			c0-0.3,0.9-0.9,0.9-0.9s0-1.6,0-1.9c-0.3-0.3,0,0,0.3-0.3c0-0.3,0-0.3,0-0.3v-1.2c0-0.3,0-0.3,0-0.3s0.3,0.3,0.7,0.3
			c0.3,0,0.9-0.3,0.9-0.3c0.3,0,0-4.5-0.3-4.7c0-0.7,0-0.3-0.3-0.3s-0.3-0.3-0.7-0.7c0-0.3,0.3-0.3,0.3-0.3l0.7,0.3l0.9,0.7
			c0,0,0-0.3,0.3-0.7c0-0.3-0.7-0.3-0.9-0.7c-0.7,0-0.9-0.3-1.2-0.3s-0.7,0-0.7-0.4c-0.3,0,0.3,0,0.3-0.3s-0.3-0.3-0.7-0.7
			c-0.3-0.3,0-0.9,0-1.2c0-0.4,0.3-0.4,0.3-0.7s-0.3-0.3-0.7-0.3c-0.3-0.3,0-0.3,0-0.7c0-0.7,0-0.9-0.3-1.2c-0.7,0-0.3-0.3-0.3-0.7
			c0,0,0.3,0,0.7,0c0.7,0,1.6,0.7,1.9,0.9c0.7,0.3,0.9,0.9,1.6,1.2c0.9,0.3,1.9,0,2.4,0c0.3,0,0.3,0,0.7,0c0.3,0.3,1.9,0.3,2.2,0
			c0.3,0,2.2,0,2.6,0c0.7,0,1.6-0.3,2.6-0.3c0.7-0.3,2.4-0.3,3.1-0.3c0.7,0,0.9-0.3,1.9-0.7c0.7-0.3,0.9-0.3,1.9-0.3
			c0.9,0,5.3-0.9,6.2-1.2c0.7,0,4.3-1.2,5-1.6c0.9,0,4.3-1.5,4.7-1.5c0.7,0,0.9-0.3,1.2-0.3c0.3-0.3,1.6-0.9,2.2-1.2
			c0.3-0.3,2.6-1.9,3.1-2.2c0.7-0.3,0.3-0.9,0.3-1.5c-0.3-0.3-0.3-0.3-0.3-0.7c0-0.7,0.9-1.6,0.9-1.9c0.3-0.7,0.3-0.7,0.9-0.9
			c0.3,0,0.3,0,0.7-0.4c0.3-0.3,1.6-2.2,1.9-2.2c0.3-0.3,0.3-0.7,0.3-1.2c0.3-0.7,0.3-0.9,0.7-1.2c0.3-0.3,2.8-3.5,3.1-3.8
			s0.3-1.9,0.3-2.2c0-0.5,0-0.9,0.3-1.2c0-0.3-0.3-1.2-0.3-1.6c0-0.3,0-0.9,0-1.2c0-0.7-0.3-0.3-0.7-0.3c0,0-0.3,0.3-0.7,0.3
			c-0.7,0-1.6-0.3-2.2-0.7c-0.7,0-2.2-2.6-2.8-3.1c-0.3-0.7,0-2.2,0.3-3.1c0.3-0.7,1.2-2.2,1.9-2.6c0.3-0.3,0.3-0.9,0-1.2
			c0-0.5-3.1-3.8-3.8-4.3c-0.3-0.3-1.6-1.2-2.2-1.6c-0.9-0.7-4.1-1.9-4.3-1.9c-0.3-0.3-0.3-0.9-0.9-1.2c-0.3-0.3-0.9-1.2-1.2-1.6
			c-0.3-0.3,0-1.9,0-2.2c0.3-0.3,0.3-0.9,0.3-1.2c0.3-0.3,0.3,0,0.9-0.3c0.3-0.3,0-0.9,0-0.9s-0.9-0.3-1.2-0.3c-0.7,0-1.2,0-1.2-0.3
			c-0.3,0-0.7-0.7-0.7-0.7s0-0.3,0.3,0c0.3,0,0.9,0.3,1.6,0c-0.3-0.7-0.3-0.7-0.7-1.2c0-0.7,0-3.5,0-4.1c0-0.3,0.7-2.2,0.9-2.8
			c0-0.9,2.2-1.6,2.6-2.2c0.7-0.7,0-1.9-0.3-2.6c-0.3-0.7-0.3-2.2-0.3-2.6c0-0.7,0.3-1.6,0.3-2.2c0-0.3,0-0.9-0.3-1.5
			c-0.3-0.3,0-2.2,0-2.8c0-0.7,1.5-2.6,1.9-3.1c0.3-0.9-0.3-2.2-0.3-2.6c-0.3-0.7,1.2-2.2,1.2-2.6c0.3-0.3,0.7-1.2,0.7-1.6
			c0-0.3,0.3-2.8,0.7-3.4c0.3-0.7-0.7-1.9-0.7-2.6c0-0.3,2.2-2.6,2.4-2.8c0-0.3,0.3-1.9,0.3-2.2c0.3-0.3,1.6-0.7,1.9-0.9
			s0.7-0.7,0.7-0.9c0-0.7,0.3-0.7,0.7-1.2c0.3-0.3,2.6-1.9,2.8-2.2c0.3-0.3,3.8-4.3,4.1-4.7c0.3-0.3,2.6-2.8,2.8-2.8
			c0-0.3,1.5-2.4,1.9-2.8c0.3-0.3,2.6-2.2,2.8-2.8c0.3-0.3,0.9-0.9,1.2-0.9s0,0.7,0.7,0.9c0.3,0.3,0.7,0,0.7-0.3s-0.3-0.7-0.7-1.2
			c0-0.3,0.3-0.3,0.7-0.7l1.2-1.2c0,0,1.2,0,1.5-0.3c0.3,0,0.3-0.9,0.7-1.6c0.7-0.3,1.2-0.7,1.2-0.7l1.2-0.3c0,0,0.3,0,0.9,0
			c0.3-0.3,0.9-0.9,0.9-0.9c0.3,0,0.9-1.2,0.9-1.2l0.9-0.9c0,0,1.2-0.7,1.6-0.9l0.7,0.3c0,0,0.3,0,0.7-0.3c0.3,0,0.3,0,0.9,0
			s0.9-0.3,1.2-0.7c0.3-0.3,0.7-1.2,0.9-1.6c0,0,0.9,0,0.9-0.3c0.3,0,1.2-0.7,1.2-0.7c0-0.3,0.9-0.9,1.6-0.9c0.3,0,1.2-1.6,1.2-1.9
			c0.3-0.3,0-1.2,0-1.6c0-0.3,0.3-0.9,0.3-1.6c0-0.7-0.3-1.9,0-2.8c0.3-0.9,0-1.2,0-1.9c0-0.7-0.3-1.6-0.7-1.9
			c-0.3-0.7-0.7-2.6-0.7-3.1c0-0.7-0.3-0.9-0.7-1.2c0-0.3-0.3-0.5-0.7-0.5c-0.7,0-0.7,0-0.9-0.3s-0.7-0.3-1.6-0.3s-1.9,0.9-2.4,1.2
			c-0.3,0-0.3-0.5-0.7-0.9c-0.3-0.3-0.7-0.3-0.9,0s-0.3,1.2-0.3,1.2s0,1.9,0,2.6c0,0.3-0.3,0.9-0.3,1.6c0,0.7,0.3,1.9,0,2.6
			c0,0.7-0.9,1.9-1.2,2.4c-0.3,0.3-0.3,1.2-0.3,1.2s-0.7,0.7-1.2,0.9c-0.7,0.3-2.6,2.2-2.8,2.6c-0.7,0.3-1.2,0.7-2.2,0.7
			c-1.2,0-1.6,1.2-1.6,1.2c-0.3,0.3-0.3,1.6-0.7,2.2c0,0.3-1.6,0.7-1.9,0.7c-0.7,0-1.9-0.9-2.2-0.9c0,0-0.9,0-1.2,0
			c-0.7,0-0.9,0.9-1.2,1.6c-0.5,0.9-1.9,0.7-2.4,0.7c-0.7-0.3-0.9-1.5-1.6-1.5s-0.7,0.7-0.9,0.9c-0.3,0.3-0.9,0.3-1.6,0.3
			c-0.7,0-1.2-0.7-1.6-0.9c0,0-0.7-0.3-0.9-0.3c-0.7,0-1.9-0.3-2.2-0.3c-0.7,0-2.8-0.7-3.5-0.7c-0.7,0-3.1-0.9-3.8-1.2
			c-0.7-0.3-3.1-0.3-3.4-0.3s-2.8,0-2.8,0c0-0.3,3.1-4.1,3.1-4.1s0.9-1.5,1.2-2.2c0-0.7,0.3-1.9,0.3-2.6c0-0.7,0.7-1.6,0.7-1.9
			c0.3-0.3,1.6-1.6,1.9-1.9c0.7-0.3,1.2-1.6,1.2-2.2c0-0.7,0.9-1.5,0.9-2.2c0-0.3,1.2-1.2,1.6-1.2c0-0.3,0.3-1.9,0.3-2.2
			c0,0-1.2-1.9-1.6-2.2c-0.3-0.3-2.2-1.5-2.4-1.9c-0.3-0.3-3.1-1.6-4.1-1.6c-0.9-0.3-6-2.6-6.2-2.8c-0.3,0-6.6-4.5-7.2-5
			c-0.9-0.7-2.6-1.9-2.6-1.9c-0.3,0-2.6-0.7-3.1-0.7c-0.7,0-1.6-0.3-1.9-0.7c-0.3,0-1.5-0.5-2.4-0.5s-5.3-3.8-5.3-3.8
			s-6.2-4.7-6.9-5c-0.9-0.7-6-6.9-6-6.9s-4.5-3.1-4.7-3.5l-1.6-2.2l-7.2,0.3l-0.9,2.8l-1.6-2.6h-2.2c0,0-1.6,3.1-1.9,3.5
			c0,0.3-0.7,1.9-0.7,2.4c0,0.3-1.2,2.8-1.2,2.8s-3.4-6.6-3.8-6.9c-0.3-0.3-1.9-0.3-2.4-0.7c-0.3,0-4.1,0.3-6.2,0.3
			c-0.3,0-0.3,0.3-0.7,0c-0.3-0.5-0.7,0-0.9,0s-0.3,0-0.3,0l-2.2-1.6l-1.2,0.3l-0.7-1.2c0,0-0.7-0.3-0.9-0.3
			c-0.7-0.3-1.2-0.3-1.2-0.3c0,0.3,0,1.6,0,2.2c0,0.3-0.3,0.9-0.7,1.6c-0.7,0.7-0.7,0.7-1.9,0.9c-0.9,0.3-1.6,0.3-1.9,0.7
			c-0.3,0-1.6,2.6-1.6,2.8s-0.7,0.3-1.2,0.3c-0.3,0.3-0.7,1.2-0.7,2.2c0,0.7-1.6,1.9-1.6,1.9l2.2,1.6l-2.2,12.6l-10.7,5.7
			c0,1.6-1.2,2.2-1.6,3.4c-0.3,0.9,1.2,1.9,1.9,2.8c0.7,0.3,0.3,0.9,0.3,0.9c-0.7,0.3-0.9,0-0.9,0c-0.3,0.3-0.9,0.9-1.2,1.6
			c-0.3,0.7,0.9,2.6,0.9,3.5s1.9,5.3,1.9,6.2c0.3,1.2-0.9,1.6-1.2,2.2c-0.7,0.7,0,0.9,0,2.2c0,1.2,2.2,3.4,2.8,4.3
			c0.3,0.7,0,0.9,0,1.5c0,0.3-1.9,0-2.8,0.7c-0.7,0.7-1.2,0-1.6,0.3c-0.7,0-0.9,0.7-1.2,1.2c0,0.7,0.5,1.2,0,1.9
			c-0.3,0.3-1.6,2.6-1.2,3.1c0,0.9,0,1.2-0.3,2.2c0,0.9-2.2,4.1-2.8,4.7c-0.7,0.7-2.6,2.6-2.8,3.4c-0.7,0.7,0,1.9-0.3,3.1
			s-0.3,3.8-0.7,5c0,0.9-0.9,0.9-1.6,1.9c-0.3,0.9,1.2,4.7,1.2,5.9c0,0.9,0.9,3.1,0.9,3.8c0,0.7-1.2,2.2-1.9,2.8
			c-0.7,0.3-0.9,0.9-1.2,1.9c-0.3,1.2-0.3,4.3-0.3,5c-0.3,0.7-1.6,0.7-2.2,0.7c-0.3,0,0,2.2,0,3.1c0,0.7,0.7,3.1,0.9,3.4
			s0.9,2.6,0.9,2.6c0.3,0,1.9,0.7,1.9,0.9c0,0-0.3,0.7-0.7,0.7c-0.3,0.3-0.7,0.3-0.7,0.7c-0.3,0.7,1.9,3.8,2.4,4.3
			c0.3,0.7,0.3,0.9,0.3,1.6c0,0.9,1.2,2.8,1.2,2.8c0.3,0.3,0.3,1.2,0,1.9c0,0.9,0.7,2.6,0.7,2.8c0.3,0.3,1.2-0.7,1.6-0.7
			c0.3-0.3,0.3,0,0.7,0.3c0.3,0,0.3,1.2,0.3,1.9c0,0.7-0.7,2.6-0.3,3.5c0.3,0.9,0.7,4.1,0.7,4.7c0,0.3,0,0.9-0.7,1.2
			c-0.7,0.7-1.6,2.8-1.9,3.5c-0.3,0.3-0.3,3.1-0.3,3.8c0,0.9-0.9,3.1-1.2,3.4c0,0.3-0.9,0.7-1.2,0.9c-0.3,0.7,0.7,0.9,1.6,1.2
			c0.7,0,0,1.2,0.3,1.9c0.3,0.7,0.7,2.8,0.7,3.8s0.3,1.2,0.3,2.6c-0.3,1.2-1.6,1.2-2.2,1.6c-0.7,0.3-0.7,1.6-0.7,2.2
			c-0.3,0.7-1.6,0.7-1.9,0.9c-0.3,0.3-0.7,1.2-0.7,1.9c0,0.7-0.3,0.9-0.7,1.2c-0.3,0.7,0,2.2-0.3,2.8c0,0.9,0.7,1.6,0.7,2.2
			c0,0.7-0.3,2.2,0,2.4s0.7,1.2,0.7,1.2s0,1.9,0,3.1c0,0.9,0.7,1.6,0.9,2.6c0.7,0.7,1.2,1.2,1.2,2.2c0,0.5,0.7,2.6,0.9,3.1
			c0.3,0.3,0.9,0.3,1.2,1.2c0.3,0.7-0.9,1.9-1.2,2.2c-0.7,0.3-3.1,1.9-3.8,2.4c-0.3,0.7,0.7,1.6,0.7,1.9c0.3,0.3,0,2.8,0,4.1
			c0,1.6-0.3,1.9-0.7,1.9c-0.7,0-0.9-0.3-1.2,0.3c-0.3,0.7,0.7,1.6,0.9,1.9c0,0.3,0,1.6,0,2.2c0,0.3-0.7,0.9-1.2,1.2
			c-0.9,0.7-0.3,1.2-0.3,1.5c0,0.7,0.9,0.7,1.6,0.3c0.3,0,0.3,0.3,0.3,0.7c0,0.7-0.7,0.9-0.9,1.2c-0.3,0.3-0.7,2.8-0.7,3.8
			c0,0.7,0.7,1.9,0.9,2.6c0.7,0.9,0.3,1.9,0,2.8c0,0.7,0.7,1.6,1.2,2.2c0.3,0.7,0.7,1.6,0.7,2.6c0,0.9,0.3,0.9,0.7,1.6
			c0.3,0.7,0.3,1.9,0.7,2.2c0,0.7-0.3,1.2-0.7,1.9c-0.3,0.3-1.9,0.3-2.2,0.7c-0.3,0.5-0.3,1.2,0.3,1.9c0.7,0.7,0.3,1.6,0,2.2
			c-0.3,0.3,0,3.8,0,4.3c-0.3,0.7,1.9,2.2,2.6,2.2c0.3,0,1.2,0.7,1.6,0.9c0.3,0.7-0.7,0.9-1.2,0.9c-0.7,0-0.3,0.7-0.3,1.2
			c0.3,0.7,1.2,1.6,1.9,1.9c0.7,0,0.7-0.3,0.9,0.3c0.7,0.7,0,0.7-0.3,0.9c-0.7,0.7-0.7,1.2-0.3,1.9c0.3,0.9,0,2.8,0,3.8
			c0,0.7,0.9,1.6,1.6,1.9c0.3,0,2.6-0.3,3.1-0.7c0.7,0,1.6,0.7,1.9,1.2c0.3,0.3-0.3,0.7-0.3,1.2c0,0.9-0.7,2.2-0.7,2.6
			c-0.3,0.3-1.2-0.7-1.9-0.7c-0.3,0-1.2,0.3-1.6,0.3c-0.3,0.3-2.2,0.7-2.6,0.9c-0.3,0.3,0,0.7,0.3,0.9c0.3,0.7,0.9,0.7,1.6,0.7
			c0.7,0.3,1.2,0.3,1.9,0.3c0.3,0,0.9,0.7,1.2,0.9c0.7,0.3,1.6,1.2,1.6,1.2s-0.3,0.3-0.7,0.7c-0.7,0.7-0.7,0.9-0.7,1.9
			c0,1.2-0.3,0.7-1.2,1.2c-0.7,0.3-0.3,1.2-0.3,1.9s1.2,1.9,1.2,2.6c0,0.9-0.9,1.5-1.2,1.9c-0.3,0.7,0.3,3.1,0.7,3.8
			c0.7,0.7,1.2,1.6,1.2,2.2c0,0.7-0.7,1.2-0.9,1.6c-0.3,0.3-1.6,0.7-0.9,1.9c0.3,1.5,0.7,1.5,0.9,2.2c0,0.7,0,0.7-0.7,0.7
			c-0.7,0.3,0,0.7,0,1.6c0,0.7-0.3,0.3-1.2,0.9c-0.7,0.9-0.9,1.9-0.9,2.6c0,0.7-0.3,0.3-0.3,1.2c-0.3,0.7-0.9,1.9-0.3,2.8
			c0.7,1.2,1.6,2.2,1.6,2.6c0.3,0.7,0.3,1.6,0.3,1.9c0,0.3,0,1.2-0.7,1.9c-0.7,0.3-1.2,0.3-0.3,1.9c0.7,1.9,0.7,0.7,0,2.2
			c-0.9,1.6-2.2,1.6-2.6,1.6c-0.3,0.3-0.9,1.9-1.2,2.6c-0.3,0.3-0.3,0.3-0.3,0.3l0.3,0.7l0.7,0.7l-0.9-0.3l-1.9-0.3v0.3
			c0,0.7,0.9,0.9,0.7,1.9c0,0.3-0.3,0.7-0.3,0.9c-0.3,1.6,0.9,2.6,0.9,3.5c-0.3,0.7-0.3,1.6-0.3,2.6c0.3,1.2,0.7,2.2,0.7,2.8
			s1.9,2.8,2.2,3.1c0.3,0.3,1.6,1.9,0.7,1.9c0.3,0.7,0.7,1.2,0.7,1.2c0.3,0.3,1.6-1.2,1.9-1.6c0-0.3,0.3-0.7,0.7-0.9
			c0.3,0,0.7,0.3,0.7,0c0.3,0.3,0.7,0,1.2,0.3c0-0.7,0-0.7,0-1.2c0.7,0,0.9,0,0.9,0c0.3,0,0.9,0,1.2,0.3c0.3,0,0,0.3,0,0.9
			c0,0.7,0.7,1.9,0.9,2.2c0,0.7-0.7,0.9-0.9,1.5c-0.3,0.7,0.9,0.9,0.9,1.6c0.3,0.3,0,0.7-0.3,0.9c-0.3,0.3,0,1.9,0.3,3.1
			c0,1.2,0.9,1.6,1.9,1.9c0.7,0.3,1.2,1.6,1.9,2.2c0.9,0.3,2.6-0.3,3.5-0.3c0.9-0.3,5-0.9,5.7-0.9l4.1-0.9l3.1,1.9h1.2l1.9-0.3
			l0.3,0.3h1.9c0.3,0.3,0.9,0.7,0.9,0.7s1.9,0,2.6,0.3C326.3,453.5,327,453.8,327.3,454z"/>
		<path class="st0" d="M355.6,480.4c0,0-0.7-0.3-0.3-0.7c0-0.3,0-0.9,0.3-0.9s0,0.7,0.7,0.3c0.3,0-0.3-0.7,0.3-0.7
			c0.7,0.3,0.7,0,0.9,0.3h0.3c0,0-0.3-0.3,0-0.3c0.3-0.3,1.2,0,1.2,0l0.3,0.3l0.3-0.3h0.7c0,0,0-0.7,0.3-0.3l0.7,0.3
			c0,0,0.3,0.3,0,0.3c-0.7,0-0.7,0-0.7,0s-0.3,0.3-0.7,0.3c-0.3,0-0.7,0.3-0.9,0.3c0,0-0.7,0.3-0.7,0c0-0.3-0.3-0.3-0.3-0.3
			c-0.3,0.3-0.7,0.7-0.7,0.7s0.3,0.3-0.3,0.3c-0.3,0-0.9,0-0.9,0S355.9,480.6,355.6,480.4z"/>
		<path class="st0" d="M294.9,177.4L294.9,177.4L294.9,177.4z"/>
		<path class="st0" d="M293.4,178.9c-0.3,0.5-0.8,1.2-1.2,1.8C292.4,179.9,293,179.6,293.4,178.9z"/>
		<path class="st0" d="M287.7,233.8c0,0.3,0.3,0.7,0.5,1.1C288,234.4,287.7,234,287.7,233.8z"/>
		<path class="st0" d="M291.7,231.1c0-0.4-0.1-0.7-0.3-0.8C291.6,230.4,291.7,230.8,291.7,231.1z"/>
		<path class="st0" d="M327.6,483.2c0.3,0,0.9-0.3,1.2-0.3c0.3,0,0.9-0.3,1.2-0.7c0.3-0.3,0.3-0.9,0.9-0.9c0.7,0,1.9-0.3,2.4,0
			c0.3,0,1.2,0,1.6-0.3h0.9c0,0,0.9,0.3,1.2,0.3c0.7,0,2.2,0,2.6,0c0.7,0,1.9,0.3,2.2,0.7c0.3,0.3,0.3,0.7,0.9,0.7
			c0.7,0,0.7-0.3,1.2-0.3c0.7-0.3,0.9,0,1.2-0.3c0,0-0.3-0.7,0.3-0.3c0.3,0,0.9,0.3,0.9,0c0.3,0,0-0.7,0-0.7h1.9c0,0,0,0.3,0.3,0.3
			c0.3,0.3,0.7,0,0.7,0s0.3-0.7,0.7-0.7c0.3,0,0,0.3,0.3,0.3s0.7,0,0.7-0.3c0.3-0.3,0.3-1.2,0.3-1.6c0.3-0.3,0.3-0.7,0.3-0.7
			s1.2-0.7,0.7-0.9c0,0-0.9,0-1.9,0c-0.7,0.3-2.8,0.3-3.1,0.3c-0.7-0.3-1.2-0.3-2.2-0.9c-0.7-0.3-1.6-0.7-2.2-0.9
			c-0.7,0-4.5-3.1-5-3.4c-0.3,0-2.8-1.9-3.1-2.6c-0.3-0.9-1.2-1.5-1.2-1.5c-0.3-0.3-1.6-1.6-1.9-1.9c-0.3,0-0.7,0.9-0.9-0.7
			c-0.7-1.2,0-1.5-0.3-1.5c-0.7,0-2.6,0-2.2-1.6c0.3-1.2-0.7-1.2,0.7-1.2c0.9,0.3,1.2,1.2,1.2,0.9c0-0.3,0-0.9-0.3-1.2
			c-0.3-0.3-0.7-1.6-0.9-1.9c-0.3-0.3-2.2-1.9-2.2-2.2c-0.3-0.7-0.7-0.9-0.7-0.9C326.1,457.8,327.6,483.2,327.6,483.2z"/>
		<path class="st0" d="M471.9,553c0,0,0.3,0.3,0.7,0c0.3-0.3,0.3-0.3,0.3-0.3s0.3-0.3,0.7,0h0.9c0,0,0.3,0.3,0,0.7
			c-0.3,0-0.7,0-0.9,0c-0.3,0.3-0.7,0.3-0.7,0.3h-0.9C471.6,553.3,471.6,553,471.9,553z"/>
		<path class="st0" d="M465.9,551.4c0,0-0.3,0.3-0.7,0.3c0,0-0.3-0.7,0-0.7c0-0.3,0.3-0.3,0.3-0.3c0-0.3-0.3-0.7,0.3-0.7
			c0.7,0,0.7-0.3,0.7-0.3s0.3,0,0.7,0c0.3,0,0.3,0.3,0.7,0.3c0.3,0.3,0.7,0,0.9,0.3c0,0.3,0,0.7,0,0.7s0,0.3,0.3,0.3h0.7l0.3,0.7
			v0.3l-0.3,0.7c0,0-0.3,0.3-0.3,0s0-0.3-0.3-0.7V552c-0.3,0-0.9,0.3-0.9,0c-0.3-0.3,0-0.3-0.3-0.3s-0.7,0-0.7-0.3
			c-0.3-0.3-0.7-0.3-0.7-0.3l-0.3,0.3H465.9z"/>
		<path class="st0" d="M420.1,553c-0.7,0-0.9-0.7-0.7-0.9c0,0,0.3-0.3,0.3-0.7c0.3-0.3,0.3-0.7,0.3-0.7c0.3-0.3,0.3-0.3,0.7-0.7
			c0-0.3,0-0.7,0.3-0.3c0.3,0.3,0.3,0.7,0,0.9c-0.3,0.3-0.3,0.7-0.3,0.7c0,0.3,0,0.7,0,0.9C420.7,552.4,420.7,553,420.1,553z"/>
		<path class="st0" d="M412.5,551.4c0,0-0.3-0.3-0.7-0.7c-0.3-0.3-0.3-0.7-0.3-0.7s-0.7-0.3-0.3-0.7c0-0.3,0.3-0.7,0.7-0.7
			c0.7,0,0.9,0,1.2,0.3c0.3,0,0.3,0,0.9,0c0.3,0.3,1.2,0.3,1.2,0.3s0.7-0.7,0.9,0c0,0.7-0.3,0.9-0.7,0.9c0-0.3-1.2-0.3-1.2-0.3
			s-0.7,0.3-0.7,0.7C413.4,551.1,413.1,551.8,412.5,551.4z"/>
		<path class="st0" d="M393.1,561.8c0,0-0.7-0.7-0.9-0.7c-0.3,0.3-0.7,0.3-0.7,0c0-0.7,0.3-0.9,0.7-1.2c0.3-0.3,1.9-1.2,1.9-1.2
			s0.3-0.3,0.7,0c0.7,0,1.2,0.3,1.6,0c0.3-0.3,0.7-0.3,0.7-0.3s0.3-0.3,0.7-0.3c0.3,0.3-0.3,0.7,0.3,0.7c0.9-0.3,0-0.7,0.7-0.3
			c0.7,0,0.7,0,0.7,0.3s0.3,0.7,0,0.7c-0.3,0.3-0.7,0.3-0.7,0.3l-0.9,0.3c0,0,0,0-0.3,0s-0.7-0.3-0.7,0c-0.3,0.3-0.7,0.7-0.7,0.9
			c0,0-0.3,0.3-0.7,0.3c0-0.3-0.7-0.3-0.3-0.7c0-0.3,0.3-0.7,0.3-0.7c-0.3-0.3-0.7-0.3-0.7-0.3s-0.9,0.7-0.9,0.9s0.7,0.7,0.7,0.7
			l-0.3,0.7h-1.1 M390.8,561.8h-1.2c0,0,0,0.7,0.3,0.7c0.3,0,0.3,0,0.7,0.7c0,0.3,0.3,0,0.7,0c0.3,0,0.3-0.3,0.7-0.7l-0.3-0.7H390.8
			z M389,563.6c0,0,0-0.5-0.3-0.5s-0.7-0.3-0.9-0.3l-0.3,0.3c0,0,0,0.5,0.3,0.5c0-0.3,0.7,0,0.7,0v0.3
			C388.3,564,389.3,564,389,563.6z M388.1,564.7c0,0,0,0-0.3,0.3c0,0.3,0,0.3-0.3,0.3s-0.7,0-0.3,0.3c0.3,0,0.7,0,0.9,0
			c0,0,0.7,0,0.7-0.3C388.3,564.9,388.6,564.7,388.1,564.7z M387,564.2v0.7h-0.7l-0.3-0.3c0,0-0.3-0.3-0.3-0.7l0.3-0.3
			c0.3,0.3,0.7,0,0.9,0C387.4,563.6,387,564.2,387,564.2z M385.2,565.9c0.3,0.3,0.9,0,1.6,0c0.3,0,0,0.3,0.3,0.5c0,0-0.3,0-0.7,0.3
			c-0.7,0.3-0.7,0.3-0.9,0c0,0-0.3,0.3-0.7,0.3c-0.3,0.3-0.3,0.3-0.7,0.3c-0.3,0-0.3-0.3-0.3-0.3l-0.3-0.3c0,0,0.3-0.7,0-0.7
			c-0.3-0.3-0.7,0.3-0.7,0.3s0,0-0.7,0.3c-0.7,0.3-0.7-0.7-0.7-0.7l-0.3,0.3c-1.2,0.3-0.7,0-0.9-0.3s-0.3,0.7-0.7,0
			c0-0.3,0-0.9,0-0.9c0.3,0,0.9,0,1.2,0s0.3,0,0.3-0.3c0.3-0.3-0.3,0,0-0.7c0-0.7,0.3,0,0.3,0l0.7,0.3c0,0,0,0.3,0.3,0.7
			c0,0,0.3,0,0.7,0c0.3-0.3,0.3-0.3,0.3-0.3h0.7c0.3-0.3,0.3-0.3,0.7-0.7c0.3-0.3,0.3,0.3,0.3,0.3l0.7,0.7c0,0-0.3,0-0.7,0.3
			C384.8,565.6,385.2,565.9,385.2,565.9z M382,569.6c0,0,0.3-0.9,0.7-0.7c0.3,0,0.7,0,0.7,0.3c-0.3,0.3-0.7,0.3-0.7,0.7l0.3,0.3
			c0,0.3-0.7,0.3-0.7,0C382,569.9,382.4,569.9,382,569.6z M374.2,569.2c0,0,0,0.3-0.3,0.3c-0.3,0.3-0.3,0.3-0.3,0.3
			c-0.3,0.3-0.3,0.7-0.7,0.7c-0.3,0.3-1.2,1.6-1.2,1.6s-0.9,0-0.7-0.3c0.3-0.3,0.7,0,0.7-0.7c0.3-0.7,0.7-0.7,0.7-0.9
			c0-0.3,0.3-0.3,0.3-0.3c0-0.3-0.3-0.7,0-0.7c0.3-0.3,0.7-0.3,0.7-0.3s0-0.3,0.3-0.3C373.8,568.7,374.2,568.3,374.2,569.2z
			 M375,573c0,0-0.7-0.3-0.7,0c-0.3,0.3,0,0.7,0,0.7v0.3c0.3,0,0.7-0.3,0.9-0.3C375.4,573.7,375.7,573,375,573z M376.9,579
			c0,0-0.7,0.3-0.4,0c0-0.7,0-0.7,0-0.7s0-0.7,0.4-0.3c0.3,0,0.7,0.3,0.3,0.7C376.9,579,377.3,579,376.9,579z M381.4,579.6
			c0,0-0.7-0.7-0.3-0.7c0.3-0.3,0.7,0,0.7-0.3s0.3-0.9,0.3-0.9s0.3,0,0.3-0.3c-0.3-0.3-0.7,0-0.7-0.3c0-0.3,0.7-0.7,0.7-0.7h0.7
			c0,0,0.3,0.3,0.3,0.7c-0.3,0.3-0.3,0.3-0.3,0.3s-0.3,1.2,0,1.6c0.3,0,0.3,0,0,0.3c-0.3,0.3-0.3,0.7-0.3,0.7h-0.7
			C382,579.9,381.7,579.6,381.4,579.6z M376,582.5c0,0-0.3,0-0.3-0.3s0.3-0.7,0.3-0.7s0.3-0.9,0.3-0.3c0.3,0.3,0,0.7,0,0.7v0.7
			C376.4,582.5,376,582.7,376,582.5z M374.8,583c0,0-0.3,0-0.7,0c-0.3,0-0.3-0.3-0.3-0.7c0-0.3,0-0.7-0.3-0.9
			c-0.3,0-0.7,0.7-0.7,0.7s-0.7,0.7-0.3,0.9c0,0,0,0,0,0.7c0.3,0.3,0.3,0,0.7,0.3c0,0.3,0.3,0.5,0,0.9c-0.7,0.3-0.9,0.3-0.9,0.7
			c0,0.3,0.3,0.7,0,0.9c0,0-0.7,0-0.3,0c0.3,0.3,0.3,0.7,0.3,0.7s0.7,0,0.7-0.3c0.3-0.3,0.3-0.3,0.7-0.3c0.3,0,0.7,0,0.7,0
			s0.3-0.3,0.3-0.7c0.3-0.3,0.3-0.9,0.3-0.9s0.9,0.3,0.9,0c-0.3-0.7-0.7-0.3-0.9-0.3s-0.3-0.5,0-0.5s1.2-0.3,1.2-0.3
			s0.3-0.3-0.3-0.7C375.4,583,374.8,583,374.8,583z M370.4,587.7c0,0,0.3-0.3,0.3-0.7c0,0,0.3-0.3,0.3,0c0.3,0.3,0.9,0.7,0.9,0.7
			l-0.7,0.7c0,0-0.3,0.3-0.7,0.3c-0.3,0.3,0,0-0.7,0s-0.3,0.3-0.7,0.7l-0.9,0.7c0,0-0.3-0.3-0.7-0.3c-0.7-0.3,0,0.3,0,0.7
			c-0.3,0.3,0.3,0.3-0.7,0.3c-0.7,0.3,0-0.3-0.7-0.3c-0.3-0.3-0.3,0-0.7-0.3c-0.3,0-0.3,0-0.7-0.3c0,0-0.3,0.3-0.7,0
			c0-0.3,0.3-0.3,0.3-0.7c0.3-0.3,0-0.7,0.3-0.9s0.7-0.3,0.9-0.3c0.3,0,0,0,0.3-0.7c0-0.3-0.3,0-0.3-0.7c0-0.3,0.7,0,0.7,0
			s0.3,0,0.7,0c0,0,0-0.3,0-0.9s0.3-0.7,0.7-0.9c0.3,0,0.7-0.3,0.7-0.3s0.7,0.3,0.9,0.3s0,0.7-0.3,0.7c-0.3,0.3-0.3,0.7-0.3,0.7
			c-0.3,0.3,0,0.7,0.3,0.7c0,0,0-0.3,0.3-0.7c0.3-0.3,0.7,0.3,0.3,0.3c0,0.3,0,0.3,0.3,0.3c0,0.3,0,0.3-0.3,0.7
			c-0.3,0.3-0.3,0.3-0.3,0.7C369.7,588,370.4,587.7,370.4,587.7z M368.1,590.9c0,0.3,0.3,0.7,0.3,0.7c0.3,0.3,0.7,0.3,0.9,0
			c0,0,0,0,0.3-0.3c0-0.7,0.3-0.7,0.3-0.7s0,0,0.3-0.7c0.3-0.3-0.7-0.3-0.7-0.3s-0.3,0.3-0.3,0.7c0,0.3-0.3,0-0.7,0
			c-0.3,0-0.3,0-0.3,0.3C368.8,590.9,368.1,590.9,368.1,590.9z M378.8,567.1c0.9-0.3-0.3-0.3-0.3-0.3c-0.3,0-0.7,0-0.7,0l-0.3,0.3
			v0.7l0.3,0.3c0,0,0.7-0.3,0.9-0.7V567.1z M393.1,574c0,0-0.3,0-0.3-0.3c0.3-0.3,0.3-0.3,0.3-0.3c0.3,0,0.3-0.3,0.7,0
			c0,0.3,0,0.7,0,0.7C393.3,574.2,393.6,574,393.1,574z M405.6,576.5c0,0-0.3-0.3,0.7-0.3c0.7,0,0.7,0,0.7,0
			c0.3-0.3,0.3-0.7,0.7-0.7c0.3,0.3,0.7,0.3,0.9,0.7c0,0.3,0.3,0.7,0.3,0.9c-0.3,0.3-1.2,0.3-1.2,0.3s-0.7,0.3-0.7,0.7
			c0,0,0.3,0.7,0,0.3c-0.3,0-0.3-0.3-0.7-0.7c-0.3,0-0.7,0.3-0.7,0c0-0.3-0.3-0.9-0.3-0.9S406,576.8,405.6,576.5z M405,575.9
			c0.3,0,0.9-0.3,0.9-0.3h0.3c0,0,0-0.3,0.7-0.3c0.3,0,0.7,0,0.7,0s0.3-0.3,0.7-0.7c0.3,0,0.3,0.3,0.3,0.3l0.7,0.7c0,0,0.7,0,0.9,0
			s0.3,0.3,0.3,0.3l0.9-0.3c0,0,0.3-0.9,0-1.6c-0.3-0.3-0.3,0.3-0.3,0s-0.7-0.3-1.2-0.3c-0.3,0,0-0.3,0-0.7
			c-0.3-0.7-0.7-0.3-1.2-0.3c-0.7,0.3-0.7,0-0.9,0c0-0.3,0,0-0.3,0.3s-0.9,0-1.2,0c-0.3,0.3-0.3,0.3-0.7,0.7
			c-0.3,0.3-0.7,0.3-0.9,0.3c-0.3,0.3,0,0.7,0,0.9c0,0.3-0.3,0.3-0.3,0.7C404.3,575.9,404.6,575.6,405,575.9
			C405,575.9,405,575.9,405,575.9z M404.1,572.3c0,0,0-0.3-0.3-0.3c-0.3-0.3-0.3-0.9-0.3-0.9s0-0.3,0.3-0.3c0-0.3,0.3-0.3,0.7-0.3
			c0.7,0.3,0.7,0.3,0.9,0.3c0.3,0.3,0.7,0,0.9,0.3c0,0,0.7,0,0.3,0.7c-0.7,0.3-0.3,0.3-0.7,0.3c-0.3,0.3-0.7,0.7-0.7,0.7l-0.7,0.3
			C404.6,573,404.1,572.8,404.1,572.3z"/>
		<path class="st0" d="M405.6,576.5c0,0-0.3-0.3,0.7-0.3c0.7,0,0.7,0,0.7,0c0.3-0.3,0.3-0.7,0.7-0.7c0.3,0.3,0.7,0.3,0.9,0.7
			c0,0.3,0.3,0.7,0.3,0.9c-0.3,0.3-1.2,0.3-1.2,0.3s-0.7,0.3-0.7,0.7c0,0,0.3,0.7,0,0.3c-0.3,0-0.3-0.3-0.7-0.7
			c-0.3,0-0.7,0.3-0.7,0c0-0.3-0.3-0.9-0.3-0.9S406,576.8,405.6,576.5z"/>
		<path class="st0" d="M393.1,574c0,0-0.3,0-0.3-0.3c0.3-0.3,0.3-0.3,0.3-0.3c0.3,0,0.3-0.3,0.7,0c0,0.3,0,0.7,0,0.7
			C393.3,574.2,393.6,574,393.1,574z"/>
		<path class="st0" d="M368.1,590.9c0,0.3,0.3,0.7,0.3,0.7c0.3,0.3,0.7,0.3,0.9,0c0,0,0,0,0.3-0.3c0-0.7,0.3-0.7,0.3-0.7
			s0,0,0.3-0.7c0.3-0.3-0.7-0.3-0.7-0.3s-0.3,0.3-0.3,0.7c0,0.3-0.3,0-0.7,0c-0.3,0-0.3,0-0.3,0.3
			C368.8,590.9,368.1,590.9,368.1,590.9z"/>
		<path class="st0" d="M370.4,587.7c0,0,0.3-0.3,0.3-0.7c0,0,0.3-0.3,0.3,0c0.3,0.3,0.9,0.7,0.9,0.7l-0.7,0.7c0,0-0.3,0.3-0.7,0.3
			c-0.3,0.3,0,0-0.7,0s-0.3,0.3-0.7,0.7l-0.9,0.7c0,0-0.3-0.3-0.7-0.3c-0.7-0.3,0,0.3,0,0.7c-0.3,0.3,0.3,0.3-0.7,0.3
			c-0.7,0.3,0-0.3-0.7-0.3c-0.3-0.3-0.3,0-0.7-0.3c-0.3,0-0.3,0-0.7-0.3c0,0-0.3,0.3-0.7,0c0-0.3,0.3-0.3,0.3-0.7
			c0.3-0.3,0-0.7,0.3-0.9s0.7-0.3,0.9-0.3c0.3,0,0,0,0.3-0.7c0-0.3-0.3,0-0.3-0.7c0-0.3,0.7,0,0.7,0s0.3,0,0.7,0c0,0,0-0.3,0-0.9
			s0.3-0.7,0.7-0.9c0.3,0,0.7-0.3,0.7-0.3s0.7,0.3,0.9,0.3s0,0.7-0.3,0.7c-0.3,0.3-0.3,0.7-0.3,0.7c-0.3,0.3,0,0.7,0.3,0.7
			c0,0,0-0.3,0.3-0.7c0.3-0.3,0.7,0.3,0.3,0.3c0,0.3,0,0.3,0.3,0.3c0,0.3,0,0.3-0.3,0.7c-0.3,0.3-0.3,0.3-0.3,0.7
			C369.7,588,370.4,587.7,370.4,587.7z"/>
		<path class="st0" d="M374.8,583c0,0-0.3,0-0.7,0c-0.3,0-0.3-0.3-0.3-0.7c0-0.3,0-0.7-0.3-0.9c-0.3,0-0.7,0.7-0.7,0.7
			s-0.7,0.7-0.3,0.9c0,0,0,0,0,0.7c0.3,0.3,0.3,0,0.7,0.3c0,0.3,0.3,0.5,0,0.9c-0.7,0.3-0.9,0.3-0.9,0.7c0,0.3,0.3,0.7,0,0.9
			c0,0-0.7,0-0.3,0c0.3,0.3,0.3,0.7,0.3,0.7s0.7,0,0.7-0.3c0.3-0.3,0.3-0.3,0.7-0.3c0.3,0,0.7,0,0.7,0s0.3-0.3,0.3-0.7
			c0.3-0.3,0.3-0.9,0.3-0.9s0.9,0.3,0.9,0c-0.3-0.7-0.7-0.3-0.9-0.3s-0.3-0.5,0-0.5s1.2-0.3,1.2-0.3s0.3-0.3-0.3-0.7
			C375.4,583,374.8,583,374.8,583z"/>
		<path class="st0" d="M376,582.5c0,0-0.3,0-0.3-0.3s0.3-0.7,0.3-0.7s0.3-0.9,0.3-0.3c0.3,0.3,0,0.7,0,0.7v0.7
			C376.4,582.5,376,582.7,376,582.5z"/>
		<path class="st0" d="M381.4,579.6c0,0-0.7-0.7-0.3-0.7c0.3-0.3,0.7,0,0.7-0.3s0.3-0.9,0.3-0.9s0.3,0,0.3-0.3
			c-0.3-0.3-0.7,0-0.7-0.3c0-0.3,0.7-0.7,0.7-0.7h0.7c0,0,0.3,0.3,0.3,0.7c-0.3,0.3-0.3,0.3-0.3,0.3s-0.3,1.2,0,1.6
			c0.3,0,0.3,0,0,0.3c-0.3,0.3-0.3,0.7-0.3,0.7h-0.7C382,579.9,381.7,579.6,381.4,579.6z"/>
		<path class="st0" d="M376.9,579c0,0-0.7,0.3-0.4,0c0-0.7,0-0.7,0-0.7s0-0.7,0.4-0.3c0.3,0,0.7,0.3,0.3,0.7
			C376.9,579,377.3,579,376.9,579z"/>
		<path class="st0" d="M375,573c0,0-0.7-0.3-0.7,0c-0.3,0.3,0,0.7,0,0.7v0.3c0.3,0,0.7-0.3,0.9-0.3C375.4,573.7,375.7,573,375,573z"
			/>
		<path class="st0" d="M374.2,569.2c0,0,0,0.3-0.3,0.3c-0.3,0.3-0.3,0.3-0.3,0.3c-0.3,0.3-0.3,0.7-0.7,0.7c-0.3,0.3-1.2,1.6-1.2,1.6
			s-0.9,0-0.7-0.3c0.3-0.3,0.7,0,0.7-0.7c0.3-0.7,0.7-0.7,0.7-0.9c0-0.3,0.3-0.3,0.3-0.3c0-0.3-0.3-0.7,0-0.7
			c0.3-0.3,0.7-0.3,0.7-0.3s0-0.3,0.3-0.3C373.8,568.7,374.2,568.3,374.2,569.2z"/>
		<path class="st0" d="M382,569.6c0,0,0.3-0.9,0.7-0.7c0.3,0,0.7,0,0.7,0.3c-0.3,0.3-0.7,0.3-0.7,0.7l0.3,0.3c0,0.3-0.7,0.3-0.7,0
			C382,569.9,382.4,569.9,382,569.6z"/>
		<path class="st0" d="M385.2,565.9c0.3,0.3,0.9,0,1.6,0c0.3,0,0,0.3,0.3,0.5c0,0-0.3,0-0.7,0.3c-0.7,0.3-0.7,0.3-0.9,0
			c0,0-0.3,0.3-0.7,0.3c-0.3,0.3-0.3,0.3-0.7,0.3c-0.3,0-0.3-0.3-0.3-0.3l-0.3-0.3c0,0,0.3-0.7,0-0.7c-0.3-0.3-0.7,0.3-0.7,0.3
			s0,0-0.7,0.3c-0.7,0.3-0.7-0.7-0.7-0.7l-0.3,0.3c-1.2,0.3-0.7,0-0.9-0.3s-0.3,0.7-0.7,0c0-0.3,0-0.9,0-0.9c0.3,0,0.9,0,1.2,0
			s0.3,0,0.3-0.3c0.3-0.3-0.3,0,0-0.7c0-0.7,0.3,0,0.3,0l0.7,0.3c0,0,0,0.3,0.3,0.7c0,0,0.3,0,0.7,0c0.3-0.3,0.3-0.3,0.3-0.3h0.7
			c0.3-0.3,0.3-0.3,0.7-0.7c0.3-0.3,0.3,0.3,0.3,0.3l0.7,0.7c0,0-0.3,0-0.7,0.3C384.8,565.6,385.2,565.9,385.2,565.9z"/>
		<path class="st0" d="M393.1,561.8c0,0-0.7-0.7-0.9-0.7c-0.3,0.3-0.7,0.3-0.7,0c0-0.7,0.3-0.9,0.7-1.2c0.3-0.3,1.9-1.2,1.9-1.2
			s0.3-0.3,0.7,0c0.7,0,1.2,0.3,1.6,0c0.3-0.3,0.7-0.3,0.7-0.3s0.3-0.3,0.7-0.3c0.3,0.3-0.3,0.7,0.3,0.7c0.9-0.3,0-0.7,0.7-0.3
			c0.7,0,0.7,0,0.7,0.3s0.3,0.7,0,0.7c-0.3,0.3-0.7,0.3-0.7,0.3l-0.9,0.3c0,0,0,0-0.3,0s-0.7-0.3-0.7,0c-0.3,0.3-0.7,0.7-0.7,0.9
			c0,0-0.3,0.3-0.7,0.3c0-0.3-0.7-0.3-0.3-0.7c0-0.3,0.3-0.7,0.3-0.7c-0.3-0.3-0.7-0.3-0.7-0.3s-0.9,0.7-0.9,0.9s0.7,0.7,0.7,0.7
			l-0.3,0.7h-1.1V561.8z"/>
		<path class="st0" d="M396.2,586.1l-0.7-0.3c0,0,0,0-0.3,0c0,0,0,0-0.3,0c0-0.3,0.3-0.7,0.3-0.7l0.3-0.3c0-0.3,0-0.7,0-0.7
			c0-0.3,0.3-0.3,0.3-0.3v-0.3c0,0,0,0-0.3,0c0-0.3,0-0.3,0-0.3l0.3-0.3c0.7-0.3,0.3-0.7,0-0.3c-0.3,0-0.3,0.3-0.7,0.3
			c0,0-0.3,0-0.7,0c0,0-0.3,0-0.3-0.3s0-0.7,0-0.7c0.3-0.3,0.3-0.3,0.3-0.3c0.3-0.3,0.7-0.7,0.7-1.2c0.3,0,0.7-0.3,0.9-0.3h0.3
			c0,0,0,0,0-0.3h0.7v0.3l-0.3,0.3v0.3h-0.3c0,0,0,0,0,0.3c0,0,0,0.3,0.3,0.3l0.3,0.3c0.3,0,0.7,0,0.7-0.3c0.3,0,0.3,0,0.3,0v-0.3
			h0.3c0,0.3,0.3,0.7,0.3,0.9c0.7,0,0.7,0.3,0.7,0.9c0.3,0,1.2,0,1.2,0h0.3c0,0.3,0.3,1.2-0.3,1.2c-0.3,0-0.7,0-1.2,0
			c0,0.3,0,1.2,0,1.5c0,0-0.3,0-0.3,0.3c-0.3,0-0.3,0-0.3,0s0,0-0.3,0.3c0,0,0,0-0.3,0c0,0-0.3,0.3-0.7,0c0,0-0.3,0-0.7,0v0.3
			c-0.3,0-0.3-0.3-0.7-0.3c0.3,0.3,0.3,0,0,0v-0.3H396.2z"/>
		<path class="st0" d="M397.7,579.6c0,0,0.3,0,0.3,0.3c0,0,0,0,0.3,0c0,0.3,0,0.3,0,0.7h0.9v-0.3h0.9c0-0.3,0-0.3,0.3-0.3
			c0-0.3,0-0.3,0-0.3s0,0,0-0.3c-0.3,0-0.9,0-0.9,0.3c-0.3,0-0.7,0-0.9-0.3c0,0-0.3,0.3-0.3,0H398L397.7,579.6
			C398.1,579.2,397.7,579.6,397.7,579.6z"/>
		<path class="st0" d="M364,622.2l0.3-0.3c0,0,0.3,0,0.3,0.3c0-0.3,0.3-0.3,0.3-0.3c0.3,0,0.3,0,0.3,0c0,0.3,0,0.3,0,0.3
			c-0.3,0-0.3,0.3-0.7,0.3h-0.3v-0.3C364.5,622.2,364.5,622.2,364,622.2z"/>
		<path class="st0" d="M348.4,621.2c0,0-0.3-0.3-0.3-0.7c0.9,0,2.8-2.8,0.3-2.8c0-1.2-0.3-1.2,0.3-2.2c0.9-0.3,0.9-3.8-0.9-1.2
			c0,0.9-1.9,1.5-2.2,2.2c0,0.3-0.3,0.9-0.7,1.2c0,0.3,0,0.9,0,1.5c-0.7,0.7-1.9,4.5-0.9,5.3c1.2,0,0.9,1.6,2.2,1.6
			c0.3,0,2.2-0.7,0.9-1.9c0-1.6,1.6-0.3,1.9-1.2c0-0.7,0.3-1.6,0.3-1.6s-0.9-0.3-1.2-0.3"/>
		<path class="st0" d="M351.2,616h-0.3c-0.3,0-0.7,0-0.7,0l-0.3-0.3c0.3-0.3,0.7-0.7,0.7-0.9v-0.3c0.3,0,0.3,0,0.3-0.3h0.3v0.3
			c0,0.3,0.3,0.7,0.3,0.7c0,0.3-0.3,0.7-0.7,0.7v0.3"/>
		<path class="st0" d="M351.8,609.6C351.8,610,351.8,609.6,351.8,609.6v0.3h0.3c0-0.3,0-0.3,0-0.3H351.8z"/>
		<path class="st0" d="M351.8,607.7v0.3h0.3c0.3,0,0,0,0.3,0c0,0-0.3,0,0,0h-0.3v-0.3C352.1,607.7,351.8,608.1,351.8,607.7z"/>
		<path class="st0" d="M360.9,603.7c-0.3,0-0.3-0.3-0.3-0.3l0.3-0.3c-0.3,0.3,0,0,0,0c0,0.3,0.3,0.3,0.3,0.3
			C360.9,603.4,360.9,603.4,360.9,603.7z"/>
		<path class="st0" d="M359.7,598.7v0.3V598.7C359.7,598.7,359.4,598.7,359.7,598.7z"/>
		<path class="st0" d="M361.3,599.6c0.3,0,0,0,0.3,0c-0.3,0-0.3-0.3-0.3-0.3V599.6C361.3,599.4,361.3,599.6,361.3,599.6
			C361.3,599.4,361.3,599.6,361.3,599.6z"/>
		<path class="st0" d="M361.6,600.8c-0.3,0-0.3,0-0.3,0h-0.4v0.3h0.3c0.3,0,0.3,0,0.3,0h0.3L361.6,600.8z"/>
		<path class="st0" d="M357.8,604.9c0,0,0.3-0.3,0.3-0.7v0.3h0.3c0,0.3-0.3,0.7-0.7,0.7v-0.3H357.8z"/>
		<path class="st0" d="M354.7,606.2c-0.3,0-0.7,0-0.9,0v0.3l-0.3,0.3c0,0,0,0.3,0,0.7v0.3c0-0.3,0,0,0,0c0-0.3,0,0-0.3,0
			c0.3-0.3,0.3,0,0,0.3v0.7h0.7c0,0,0-0.3,0.3-0.3v-0.3c0.3-0.3,0.7-0.7,0.7-1.2v-0.3c0,0,0,0,0.3,0
			C354.7,606.5,354.7,606.5,354.7,606.2z"/>
		<path class="st0" d="M356.6,604.1h-0.3c0-0.3-0.3-0.3-0.3-0.3v-0.7c0,0,0,0,0-0.3c0.3,0,0.3,0,0.3,0s0,0,0-0.3c0,0,0.3,0,0.3-0.3
			c0-0.3,0-0.9,0-1.2c0,0,0,0,0-0.3v-0.3c0,0,0.3-0.3,0.7-0.3c0,0,0,0,0.3,0l0.3-0.3c0.3-0.3,0.3,0,0.7,0h0.3c0,0,0,0.3,0,0.7v0.7
			c-0.3,0-0.3,0.3-0.3,0.7c0,0,0,0-0.3,0c-0.3,0-0.3,0-0.7,0c0,0,0,0.3-0.3,0.3l0.3,0.3c-0.3-0.3,0,0,0,0c0,0.3,0,0.3,0,0.7
			c0,0,0,0,0.3,0v0.3c0,0.3,0,0.3,0,0.3l-0.3,0.3h-0.3c0.3,0,0,0,0,0c0.3,0,0,0,0,0c0,0.3,0,0.3,0,0.3h-0.7V604.1z"/>
		<path class="st0" d="M388.6,595.8c-1.2-0.3-0.9-0.7-1.2-0.7c-0.9-0.7-0.3-1.6,0.3-0.9c0.3,0,0.3,0,0.7,0c-0.3,0-0.3,0,0,0.3h1.2
			c0,0,0,0.7,0,0.9L388.6,595.8z"/>
		<path class="st0" d="M414.1,765.9c0.3-0.4,0.3-0.4,0.3-0.4c0-0.3,0.7-0.7,0.7-0.9c0.3,0,0.3,0,0.3,0c0.7-0.3,1.9-0.3,2.4-0.7
			c0-0.7,0-1.2,0-1.9c0,0,0,0,0.3,0c0.3,0,0.7,0,0.7,0c0.3,0,0.7,0,0.7,0c0.3-0.3,0.9,0,0.9,0c0-0.3,0.3-0.7,0.3-0.9
			s0.3-0.7,0.7-0.9c0.3,0,0.7-0.3,0.7-0.3c0.3-1.2,0-2.6,0-3.5c0.3-0.3,0.3-0.7,0.7-0.7c0-0.3,0-0.7,0.3-0.9c-0.3,0-0.3,0-0.3,0
			c0-0.3,0-0.3,0-0.3h-0.3l-0.3-0.3c-0.3-0.3-0.3-0.7-0.3-0.9c0,0,0,0,0-0.3l0.3-0.3h0.3c0,0,0-0.3,0.3-0.3c-0.3-0.7,0-1.2-0.3-1.6
			c0-0.5,0-1.2,0-1.9c-0.3,0-0.7,0-0.7-0.3c-0.3,0-0.7,0-0.9,0s-0.7-0.3-0.7-0.3s0-0.3,0-0.7h-0.3c0,0,0.3-0.3,0.3-0.7
			c0,0,0.3,0,0.3-0.3c0.3,0,0.7,0,0.7,0c0.3,0,0.9,0,1.2,0v-0.3c0.3,0,0.7-0.3,0.9-0.3h0.3c0,0,0,0,0-0.3c0-0.7,0-1.9-0.3-2.6
			c0-0.3,0-0.9,0-1.2c-0.3-0.4-0.3-0.7-0.7-0.9v-0.3c0-0.3-0.3-1.2-0.3-1.6c-3.1-1.9-0.3-1.5-5.7-2.2c-0.3,0-0.7,0.3-0.9,0.3
			s-0.3,0.3-0.7,0.7h-0.3c-0.3,0.7-0.9,0.9-1.6,1.2c0,0-0.3,0.4-0.7,0.4c0,0.3,0,0.5,0,0.9c-0.3,0,0,0-0.7,0.3
			c0,0.3-0.7,0.3-1.2,0.3c-0.3,0.3-0.7,0.7-0.9,1.2c-0.3,0-0.7,0.3-0.9,0.7c0,0.3,0,0.3-0.3,0.7c0,0-0.3,0.3-0.3,0.7
			c-0.3,0.3-0.3,0.9-0.3,1.2c-0.3,2.2,0,4.7-0.7,6.9c0,0-0.3,0-0.3,0.3c0,0,0-0.3,0,0.3v0.9c0,0.3-0.3,0.3-0.3,0.3
			c0,0.3-0.3,0.3-0.3,0.7c-0.3,0-0.3,0-0.7,0.3c0,0.7-0.7,1.2-0.7,1.6c-0.9,0.3-1.5,0.7-2.2,0.7l-0.3,0.3c0,0,0,0.4-0.3,0.4
			c0,0.3,0,0.7,0,0.7c-0.3,0.3-0.7,0.7-1.2,0.7c0,0.3,0,0.7-0.3,0.7c0,0-0.3,0-0.7,0c-0.3,0.3-0.7,0.7-0.9,0.7
			c-0.3,0.3-0.9,0-0.9,0.3c-0.3,0-0.7,0.9-0.7,1.2c-0.3,0-0.7,0-0.9,0l-0.7,0.7c0,0.7,0.3,0.9,0,1.2s-0.3,0.7-0.3,0.7
			c0,0.3,0,0.7-0.3,0.9c0,0.4,0.7,1.9,0.9,2.2c0,0.9,2.2,1.2,3.8,1.2c0-0.3,0.3-0.3,0.7-0.3c0-0.7,1.6-0.7,1.6-0.7
			c0.3,0,0.9,0,0.9-0.3c0.3,0,0.7,0,0.7,0c0.3,0,0.3,0,0.3,0c0.3-0.3,0.3-0.3,0.3-0.3c0.3,0,0.3,0,0.3,0c0.7,0,0.9-0.3,1.2-0.3
			c0.3,0,1.2,0,1.6,0c0-0.3,0.7-0.3,0.9-0.3c0,0,1.9-0.7,1.9-0.3c0.3,0,0.7,0,0.7,0.3C411.5,766.8,414.1,767.1,414.1,765.9
			 M376.9,763c-0.4,0-0.7,0.4-0.7,0.4H376c0,0.3,0,0.3,0,0.7c-0.3,0-0.3,0.3-0.7,0.3H375c-0.3-0.7-0.3-0.7-1.2-0.7l-0.7-0.3
			c0.7,0.3,0,0,0,0c-0.3,0-0.3,0-0.7,0c0-0.4,0-0.7-0.3-0.7s-0.3-1.2-0.3-1.5h-0.3c0-0.3,0-0.9,0-1.2c0,0,0,0-0.3-0.3v-0.5
			c0-0.7,0.7-0.7,0.9-0.7l0.3,0.3c0,0.3,0,0.3,0,0.7c0,0.3,0.3,0.3,0.7,0.3c0.3,0,0.3,0,0.7,0c0,0,0,0,0,0.3c0-0.3,0-0.3,0.3,0v0.4
			c0.9,0,1.6,0.3,2.2,0.7h1.2c0,0,0,0,0.3,0c0,0,0,0,0.3,0l0.3-0.3v-0.3h0.3c0.7,0,1.2-0.4,1.9-0.4c0.3,0,0.7-0.3,0.9-0.3h0.3
			c0-0.3-0.3-0.3-0.3-0.7c0-0.3,0-1.2,0-1.6c-0.3-0.3-0.7-1.5-0.3-1.9l0.3-0.7c0-0.3,0-0.7,0.3-0.7c0,0,0-0.3,0-0.7
			c0,0,0.3,0,0.3-0.3c0,0,0.3-0.3,0.7-0.3c0.7,0,0.9-0.3,1.5-0.3c0,0.3,0,0.3,0.3,0.3c0,0,0,0,0,0.3s0,1.6,0,2.2
			c0,0.7,0.3,1.5,0.3,2.2c0.3,0.7,0.3,1.6,0.3,2.6c0,0.7,0,1.2,0,1.5c-0.3,0-0.7,0.3-0.7,0.7c0,0.3,0,0.7,0,1.2l-0.3,0.3
			c-0.3,0.3-0.3,0.7-0.3,0.9c0,0.3,0,0.3,0,0.7c-0.3,0.3-0.3,0.7-0.7,0.9c-1.2,0-2.2,0-3.4-0.3h-0.3c0-0.3,0-0.7,0-0.9
			c0-0.3-0.3-0.7-0.3-0.9c-0.3,0-0.3-0.3-0.3-0.3c-0.3,0-0.7,0-0.7,0l-0.3-0.3c0-0.3,0-0.3,0-0.7l-0.3-0.4c0,0,0,0-0.3,0
			C377.6,763,377.3,763,376.9,763z M362.3,755.9c0,0,0-0.3-0.3-0.3c-0.3,0-0.7-0.3-0.9-0.3s-0.3,0-0.3,0v-0.3l-0.3-0.3
			c0,0,0-0.3-0.3-0.3v-0.3c0,0,0,0,0-0.3c0,0,0-0.3,0-0.5c-0.3,0-0.3,0-0.3,0c0-0.7-0.7-0.9-0.9-1.2l-0.3-0.3c0-0.7,0.3-0.7,0.3-0.9
			c0.3-0.3,0.3-0.7,0.3-0.9c0,0,0.7-0.9,0.7-1.2l0.3-0.3c0-0.3,0.3-0.5,0.3-0.5c0.3-0.4,0.3-0.7,0.3-0.9v-0.3c0.3,0,0.7-0.7,0.9-0.7
			c0.3,0,0.3,0,0.7,0c0-0.3,0.3-0.3,0.3-0.3c0.3,0,0.3-0.3,0.3-0.3h0.3l0.3-0.4V745c0-0.3,0.7-0.7,0.7-0.9c0,0,0.3-0.7,0.7-0.7
			c0,0,0-0.3,0.3-0.3c0,0,0.9-0.7,1.2-0.7c0-0.3,0-0.3,0.3-0.3l0.3-0.3c0.3,0,0.3,0,0.3,0h0.7v0.3c0,0.9,0,1.9-0.3,3.1
			c-0.3,0-0.7,0.9-0.9,1.2s-0.3,0.3-0.3,0.7c-0.3,0-0.9,0.7-1.2,0.7v0.4c-0.3,0.3-0.7,0.3-0.7,0.5c-0.3,0.9-0.3,2.2-0.3,3.1v0.3
			l-0.3,0.3l-0.3,0.3c0,0.3,0,0.3-0.3,0.3c0,0.7-0.3,0.9-0.3,1.2c0,0.3,0,0.3-0.3,0.3c0,0,0,0,0,0.3v0.9c0,0-0.3,0-0.3,0.3v0H362.3z
			"/>
		<path class="st0" d="M409.1,554l0.3,0.7l1.2,0.3v-0.3C410.6,554.5,408.4,554,409.1,554z"/>
		<path class="st0" d="M344.2,687.3c0-0.3,0-0.3,0-0.3c0.3-0.3,0.3-0.7,0.7-0.3c0.3,0.3,0,0.3-0.3,0.7
			C344.6,687.3,344.2,687.6,344.2,687.3z"/>
		<path class="st0" d="M337.1,691.6l-1.5-5.9l0.3,0.3c0.3,0,0.3,0,0.3,0h0.3c-0.3,0,0,0,0,0.3h0.3l0.3,0.3c0.3,0,0.7,0,0.7,0.3
			c0.3,0,0.3,0,0.3,0c0.7-0.3,1.2,0,1.5,0.3v1.9l-0.3,0.3c0,0.3-0.3,1.2-0.3,1.5c-0.3,0.3-0.9,0.3-1.2,0.3c0,0-0.3,0-0.7,0
			C337.1,691.6,337.1,691.6,337.1,691.6z"/>
		<path class="st0" d="M333,671.3v-0.3l0.3-0.3h0.7c0,0.3,0.3,0,0.7,0c0,0,0,0,0-0.3c0,0-0.3-0.3-0.3-0.7c0,0,0,0-0.3,0
			c0-0.3-0.3-1.9,0.3-2.2h1.6c0.7-0.3,1.2-0.7,1.9-0.7h0.3c-0.3,0,0,0,0-0.3c0,0,0,0,0-0.3h-0.3c0,0-0.9,0-0.9-0.3h-0.3
			c0-0.3,0-0.3,0-0.3s-0.3-0.9-0.3-1.2h0.3c0.7,0,2.2-0.7,2.2-0.3c0.3,0,0.3,0.3,0.7,0.3h0.3v-0.3h0.7c0,0,0.3,0,0.3,0.3
			c0-0.3,0.7-0.3,0.9-0.3c0-0.3,0.7-0.3,0.3-0.7c0-0.7,0.3-0.7,0.3-1.2c0.3,0,0.7,0,0.9,0.3c0,0.3,0.3,0.7,0.3,0.9h0.9
			c0.7-0.3,0-2.2-0.3-2.6c-0.7,0-1.2-0.3-1.5-0.3c-0.3-0.3-0.3-0.9-0.3-1.2c-0.3,0-0.7-0.3-0.9-0.3c0,0,0,0-0.3,0c0,0,0,0.3-0.3,0.3
			l-0.3,0.3c-0.3-0.3-0.3-0.7-0.3-0.7c-0.3-0.3-0.7-0.7-0.7-0.9c-0.3,0-0.9,0-1.2,0c0,0-0.3,0-0.7,0c0-0.3,0-0.3-0.7-0.3
			c0-0.3,0-0.3-0.3-0.3v-0.7c0.3,0,0.3-0.3,0.3-0.3c0.3-0.3,0.9-0.9,1.2-0.9l0.3-0.3l0.3-0.7v-0.3c0.3,0,0.9,0,0.9,0l0.3-0.3v-0.7
			c-0.7-0.3-0.9-0.9-1.2-0.9h-0.3c0-0.3,0-0.3,0-0.3c-0.3-0.3-0.3-0.7-0.3-0.9c0-0.7,0.3-1.6,0.3-2.2v-0.3c-0.3,0-0.3,0-0.7,0
			l-0.3-0.3c0,0,0,0,0-0.7c0-0.3,0-0.7,0-0.9c0-0.9,0.3-1.5,0.3-2.2c-0.3,0-0.3-0.3-0.3-0.7c-0.3,0-0.7-0.3-0.9-0.3
			c0,0-0.3-0.3-0.7-0.3c0-0.3-0.3-0.9-0.3-1.2h-0.5c0,0,0,0,0-0.3l0.3-0.3c0,0,0.3-0.7,0.7-0.7c0,0,0,0,0.3-0.3V641c0,0,0,0,0-0.3
			c0,0.3,0,0.3,0.3,0v-0.3h0.3c-0.3,0,0,0,0,0v-0.3v0.3l0.3-0.3h0.9c0,0.3,0.3,0.3,0.7,0l0.3-0.3c0,0,0,0,0-0.3c0.3,0,0.3,0,0.3,0
			c0.3-0.3,0.3-0.3,0.7-0.7c0.3,0,0.7,0,0.7,0c0.7,0,1.6,0,1.9,0.3c0,0.3,0.3,0.3,0.3,0.7c0,0.9,0.3,1.9,0.3,2.8c0,0,0,0,0.3,0v0.3
			c0,0,0,0,0,0.3v0.3c0.3,0,0.3,0.3,0.3,0.3c0.3,0,0.3,0,0.3,0c0.3,0,0.3,0,0.7-0.3l0.3-0.3h0.3c0,0.3,0,0.7,0,0.9
			c0.3,0,0.3,0,0.7,0c0,0.3,0,0.7,0,0.9s0,0.7,0,0.9l0.3,0.3h0.3c0,0,0,0,0,0.3s0,0.3,0,0.3c0.3,0,0.7,0.3,0.7,0.3h0.3
			c0,0.9,0,1.9,0,2.6c0.3,0.3,0.3,0.3,0.3,0.3v0.3c0.3,0,0.3,0,0.3,0s0,0,0,0.3c0.3,0,0.3,0,0.3,0c0,0.7,0,1.2,0.3,1.9h0.3
			c0,0,0.3,0,0.3,0.3v0.9c0.3,0,0.3,0.3,0.7,0.3v0.3c0,0.3,0.7,0.3,0.7,0.3v0.3c0.3,0,0.3,0,0.3,0v0.9c0.3,0.3,0.3,0.3,0.3,0.7
			l0.3,0.3c0,0,0.3,0.3,0.7,0.3v0.7h0.3c0,0.3,0,0.9,0,0.9c0,0.3,0,0.3,0.3,0.3c0,0.3,0,0.9,0,0.9v0.7c0,0,0.9,0,0.7,0.7v0.3
			c0,0,0,0,0,0.3v0.3c0.3,0,0.3,0.3,0.3,0.3c0.3,0.3,0.3,0.7,0.3,1.2c0,0.3,0,0.7,0,0.9c0,0.7,0,1.9,0.3,2.2c0,0.9,0.3,1.9,0.3,2.6
			c-0.3,0.3-0.3,0.9-0.3,1.2c0,0.9,0,1.9,0,2.6c-0.3,0.3-0.3,0.3-0.7,0.3l-0.3,0.3c0.3,0,0.3,0.7,0.7,0.7c0,0-0.3,0.3-0.7,0.3
			c-0.3,0-0.9,0.7-1.2,0.7c0,0,0,0.3,0,0.7l-0.3,0.3v0.3c0,0.3,0.3,0.3,0.3,0.7c0.3,0,0.3,0,0.7,0c0,0,0,0.3,0,0.7
			c0,0-0.3,0-0.3,0.3c-0.7,0-0.9,0-1.2,0.3c0,0.3,0,0.7,0,0.9c-0.9,0.3-1.9,0.3-2.8,0.5c0,0.3-0.3,0.7-0.3,0.7
			c-0.3,0-0.7,0.3-0.7,0.3l-0.3,0.3c0,0-0.7-0.3-0.7,0c-0.9,0-1.9,0-2.8,0c0,0.3-0.7,0.3-0.7,0.7c0,0.3-0.3,0.3-0.3,0.3
			c0,0.3,0,0.3,0,0.7h-0.3c0,0,0,0-0.3,0h-0.3c-0.3,0-0.7,0.3-0.7,0.3h-0.3l-0.3-0.3c0-0.3-0.3-0.3-0.3-0.7c0.3,0,0.3,0,0.3,0v-0.3
			c-0.3,0-0.7,0-0.9,0c-0.3,0-0.7-0.3-0.9-0.3c0,0,0,0,0-0.3c0,0,0-0.7-0.3-0.7c0-0.3,0-0.7-0.3-0.7h-0.7c0-0.3,0-0.3,0-0.5
			c0,0,0.3-0.4,0.3-0.7c-0.3,0.7,0,0.3-0.3,0c0-0.3,1.6,0,1.9,0s0.3,0,0.7-0.3c0.3,0,0.7,0,0.7,0c0.3,0,0.9,0,1.2,0
			c0,0.3,1.2,0.3,1.6,0.3c0.3,0,0.7,0,0.9,0c0.3-0.3,0.7-0.3,0.9-0.3c0.3-0.3,0.7-0.3,0.9-0.7c0-0.3,0-0.3,0-0.3
			c0.3-0.3,0.3-0.3,0.3-0.3v-0.3c-0.3,0-0.7,0-0.9,0c0,0-0.7,0.3-0.7,0.7c-0.3,0-0.7,0-0.7,0l-0.3-0.3c-0.3,0-0.7,0-0.9,0
			c0-0.3-0.3-0.3-0.7-0.3c0-0.3,0-0.7,0-0.7c0-0.3-0.3-0.3-0.3-0.3c0-0.9,0.7-0.3,0.9-0.9c0.3,0,0.3,0,0.7-0.3h-0.3l-0.3-0.3
			l-0.3-0.3c-0.3,0-0.9-0.3-1.2-0.3v-0.9c-0.3,0-0.9-0.3-0.9-0.9c0-0.3-0.3-0.9-0.3-1.6c0,0-0.3-0.3-0.7-0.3c0,0.3-0.3,0.3-0.3,0.3
			l-0.3,0.3c0,0.3,0,0.3-0.3,0.7l-0.3,0.3h-0.3c0,0,0,0.3,0,0.7v0.3c0-0.3,0,0,0.3,0l0.3,0.3c0,0.3,0,0.3,0,0.3l-0.3,0.3
			c0-0.3,0,0,0,0.7c-0.3,0-0.3,0-0.3,0.3c-0.7,0-1.2,0-1.6-0.3c-0.3,0-0.9,0.7-1.6,0.7v0.3c0,0-0.3,0.3,0,0.3c0,0.3,0,0.3,0.3,0.7
			v0.9c0.3,0.3,0,0.7,0,0.9v0.3h-0.1c-0.3,0-0.3,0-0.3,0h-0.3c-0.3,0-0.3,0-0.3,0c-0.3,0-0.7-0.3-0.7-0.3c-0.7-1.9-1.2-4.1-1.6-5.9
			h0.4v-0.3h0.3v-0.3C333,671.3,333,671.3,333,671.3 M334.9,649.5h0.3c0-0.3,0-0.3,0-0.3c0.3,0,0.7-0.7,0.7-0.7c0-0.3,0-0.7,0-0.7
			v-0.3c-0.3,0-0.7,0-0.7-0.3c0-0.4,0-0.4,0,0c0-0.4,0-0.4-0.3-0.7c0-0.3,0-0.3-0.3-0.3s-0.7,0-0.7-0.3h-0.3c0,0.3-0.3,0.3-0.3,0.3
			c0,0.3,0,0.7,0,0.9h-0.3c-0.3,0-0.9,0-1.2,0c0,0.3-0.3,0.3-0.3,0.7v0.3c0,0.3,0,0.3,0,0.7c0.3,0,0.3,0,0.7,0
			c0.4,0,0.4,0.3,0.4,0.3h0.3l0.3,0.3c0.7,0.3,0.9,0.3,0.3,0.3c0.3,0,0.7,0,0.7,0c0.3,0,0.3,0,0.3,0
			C334.6,649.7,334.6,649.5,334.9,649.5z"/>
		<path class="st0" d="M358.2,769.5c5.8,20.4,14.2,51.6,27.9,94.7c12.2-14.6,25-29.2,36.8-44.3c21.4-27.4,41.4-55.9,61.3-85.1
			c-0.3,0-0.3,0-0.3,0.3h-2.3l-0.7-0.3c0-0.7-1.9,0-2.2,0c-0.9,0.9-2.6,0.3-2.8,0.7c-1.2,0-3.1,0.3-4.3,0.7
			c-2.2,1.6-3.1,0.7-6.6,1.6c-0.9,0.9-3.1,1.5-4.5,1.5c-0.7,0-0.9,0.7-1.6,0.7c-0.7,0.7-3.1,0.3-4.3,0.7c0,0.3-0.3,0.3-0.3,0.9
			c-0.3,0-0.9-0.3-1.2-0.3c-0.9,0.3-1.2,1.6-3.1,1.6v0.3c-0.9,1.2-0.3,1.5-0.3,2.6c-0.3,0-0.9,0.3-0.9,0.7c0,0-1.2,0-1.2-0.3
			c-0.3,0-1.9,0.9-2.2,1.2c-1.2,0-3.1,0.9-3.1,2.6c-0.7,0.3-0.3,6.2-0.3,8.5c0.9,0.9,0.9,0.9,1.2,1.2c0,0.3,2.4,2.8,2.8,2.8
			c0,0.9,9.8,1.6,10.7,1.6c0,0,0.9,0.3,1.2,0.3v0.3c0,1.9-2.8,1.6-4.5,1.6c0,0.3-3.4,0.9-3.4,0.9c0,0.3,0,0.7-0.3,0.7
			c0,0.7,0.7,1.9,0.9,2.2c0,0.7-0.9,3.1-1.5,3.4c0,0-0.7,0.3-0.7,0.7c-1.6,0-2.8,0-4.1,0c-1.6,1.2-4.1,0-5,0.7
			c-0.7,0.9-2.4,0.3-3.4,0.3c-0.3-0.3-0.9,0-1.2,0c-0.3,0-2.6,0.3-2.6,0.7c-0.7,0-1.6,0.3-2.2,0.3c0,0.4-0.7,0.4-0.9,0.4h-0.3
			c-0.3,0-0.7,0-0.9,0c0,0-0.7-0.7-0.9-0.7v-0.3c-1.6,0-4.1-0.3-5.3-0.3c0,0.3-0.3,0.3-0.3,0.3c0,0.3,0,0.3-0.3,0.7
			c-0.3,0-0.7,0.4-0.7,0.7c-0.3,0-0.9,0.7-0.9,0.9c-0.3,0-0.3,0-0.3,0c-0.3,0.3-0.9,0.9-0.9,1.2c-0.3,0-0.3,0-0.7,0
			c0,0.3,0,0.3,0,0.3c-0.3,0.3-0.3,0.7-0.7,0.9c0,0.9,0,0.9-0.7,1.5c0,0-2.2,0-2.2-0.3c-0.9,0-2.2-0.3-3.1-0.3h-0.3c0,0,0,0,0-0.3
			s0-0.3-0.3-0.7c-0.3,0-0.7,0-0.9,0c-0.3-0.7-2.2-0.7-2.8-0.7h-0.3c0-0.3-1.9-0.3-2.2-0.3c0,0-0.3,0-0.3,0.3
			c-0.9,0.3-2.2,0.3-3.1,0.7c-0.3,0-0.7,0.3-0.9,0.3c0,0,0,0,0,0.3h-0.3l-0.3,0.3c-0.7,0-1.9,0.3-2.6,0.9c-0.3,0-0.7,0.3-0.9,0.7
			c-0.3,0-0.7,0.3-0.9,0.7c-0.7,0-1.2,0.3-1.9,0.3v0.3c-0.3,0-0.7,0-0.9,0c0,0.3,0,0.3-0.3,0.7v0.4c0,0.7,0,1.9-0.3,2.4
			c0.3-1.9,0.3-0.7,0,0.3c-0.3,0.7-0.7,0.9-0.9,1.2c-0.3,0-0.3,0.7-0.7,0.7c0,0-0.3,0.3-0.3,0.7l-0.3,0.3c0.3-0.3,0,0,0,0.3L389,791
			h-0.9c-0.3,0-0.9-0.3-1.2-0.3c0.3-0.7,0.3-1.9,0.3-2.6l-0.3-0.3v-0.7c-0.3-0.3-0.3-0.7-0.3-0.7c-0.3-0.3-0.7-0.7-1.2-0.7
			c-0.3-0.3-0.9-0.7-0.9-0.9l-0.3-0.3c-0.7-0.4-1.6-0.9-2.2-1.2c0-0.3-0.3-0.9-0.3-1.2c-0.3,0-0.7,0-0.9,0c-0.9-0.7-1.6-1.2-2.2-1.9
			c0,0-0.3-0.3-0.3-0.7c-0.3,0-0.9,0-1.2-0.3s-0.9-0.7-0.9-0.9c-0.3,0-0.7-0.3-0.7-0.7c-0.7,0-1.2-0.3-1.6-0.3c0-0.3,0,0,0-0.7
			c-0.7-0.3-0.7-0.7-0.9-0.9s-0.7-0.9-0.9-0.9c-0.7-0.3-1.2-0.5-1.9-0.5c-0.3,0-0.7-0.3-0.7-0.3c0-0.3-1.2-0.9-1.2-1.2
			c-0.3,0-0.9,0-1.2-0.3c-0.3,0-0.3,0-0.9-0.3c-0.9,0-2.2,0-3.1,0c-0.3,0-0.3,0-0.7,0c0-0.3-0.7-0.7-0.7-0.7
			c-0.7-0.7-0.9-0.9-1.9-0.9c0-0.3-0.3-0.3-0.3-0.3C358.5,769.7,358.8,769.8,358.2,769.5 M358.3,769.5
			C358.8,769.5,358.3,769.5,358.3,769.5l-0.4-0.3L358.3,769.5z M347.8,732.9c0.3,1.9,0.9,4.1,1.6,5.9c0-0.3,0-0.3,0-0.7
			c0.3-0.3,0.9-0.9,1.2-1.2c0-0.9,0.9-1.9,0.3-2.8c0-0.7,0-1.2,0-1.9C349.9,732.7,348.7,732.7,347.8,732.9z M337.7,694.8
			c2.6,10,5,19.7,7.6,29.4c2.2,0,5,0.7,6,0.7c0.3-0.3,2.2-1.6,2.2-0.9c0.3,0,1.6-0.7,1.9-0.3l0.3-0.4c0.9-0.3,0.9-2.2,1.6-2.8
			c0.3,0,0.3,0,0.3-0.3c0.3-0.3,0-0.9,0.3-0.9V719h0.9c0-0.3,0-0.3,0-0.3l0.3-0.3c0,0,0.3,0,0.7,0c0-0.3,0.7-0.7,0.7-0.7l0.3-0.3
			c0-0.3,0-0.3,0.3-0.7c0.3,0,0.9,0.3,1.2,0c0.7,0,0.7-0.9,1.2-0.9c0,0,0.9,0,1.2,0s0.7,0,0.7,0c0.3-0.4,0.3-0.4,0.7-0.7l0.3-0.5
			c0.3,0,0.7-0.3,0.9-0.3c0.3-0.3,0.7-0.7,0.9-0.9c0-0.9,1.2-1.9,2.2-1.9c0.3-0.7,0.9-0.9,1.2-0.9c0-1.2,2.8-1.9,2.8-3.1
			c-0.7-0.3-0.3-1.2,0.3-1.2c0-0.9-2.6-0.3-1.6-1.2c0.3,0,1.6-0.9,1.6-0.9c0-0.3-0.3-0.7-0.3-0.7c-0.7,0-0.9,0.3-1.5,0.3
			c0-0.3-0.9-0.9,0-1.6c0.3-0.3,0.7-0.9,0.9-0.9c0-0.7,0.3-1.5,0.3-2.2c0.9,0,0.7-0.3,1.6,0.3c0,0.7,0.3,1.2,0.3,1.6
			c0.3,0.7,0.3,0.9,1.2,0.9c0.3,0,0.7-0.3,0.9-0.7c0-0.7,0.3-1.9,0.7-2.2c-0.3,0.3,0,0,0.3,0c0-0.3,0.7-0.9,0.7-0.9
			c1.2,0,1.5,0.7,2.4-0.3c0-0.7,0.3-0.9,0.3-1.6c-1.2,0-0.9-1.6-0.3-1.6c0-1.6-0.3-1.2-1.5-1.2c0,0-0.3-0.3-0.7-0.3v-0.3
			c0.3,0,0.3,0,0.3,0s0.3-0.3,0.3-0.5c-0.7-0.7,0-0.7,0-0.9c1.2,0,1.2,1.2,1.9,1.2c0.7-0.3,0.7-2.2,0.7-2.6c0-0.3,0.3-0.7,0.3-0.7
			c0.3-0.3-0.7-0.3-0.7-0.3s0,0.3-0.3,0.3c0.3-0.3,0.3,0,0,0c0-0.3,0-0.3-0.3-0.3c0-0.3,0.3-0.7,0.3-0.7h0.3c0-0.3,0-0.3,0-0.7
			c0,0-0.3,0-0.3-0.3l-0.3-0.3H382c0,0,0,0-0.3,0v0.3c-0.3,0-0.3,0.3-0.7,0.3c0.3-0.3,0.3,0-0.3,0c0-0.3,0.3-0.7,0.3-0.7
			c0.3,0,0.3-0.3,0.3-0.3v-0.4c-0.3,0-0.7,0-0.7,0c-0.3-0.3-0.7-0.3-0.7-0.7c0-0.3,0.3-0.3,0.3-0.3c0.3,0,0.3-0.3,0.7-0.3
			c-0.3,0.3-0.3,0,0-0.5c0-0.3,0-0.3,0.3-0.3c0,0,0.3,0,0.3,0.3c0,0,0.3,0.3,0.3,0.5v0.3h0.3c0.3,0,0.3-0.3,0.7-0.3
			c0,0,0.3,0,0.3,0.3s0,0.3,0.7,0.3v-0.3c0-0.3,0.3-0.9,0.3-1.2c-0.3,0-0.3-0.4-0.3-0.7h0.3c0.3-0.3,0.7,0,0.9,0
			c0.3,0.3,0.3,0.7,0.3,0.9h0.7v-0.3c0.3,0,0-1.6,0-1.9c-0.3-0.3-0.3-1.2,0-1.6V680l-0.3,0.3h-0.3c0,0.3,0,0.3-0.3,0.3v0.3
			c-0.3,0.3-0.9,0.3-1.2,0.3c0,0-0.3,0-0.7,0.3c0,0,0,0-0.3,0v-1.2c0.3,0,0.3,0,0.3-0.3h0.3v-0.3l0.3-0.3c0-0.5-0.3-1.2-0.3-1.9
			v-0.7c0,0-0.7,0-0.7,0.3l-0.3,0.3v0.3c-0.7,0-0.9,0-1.6,0v-0.3c0,0,0,0-0.3,0c0-0.3,0-0.3,0-0.3h0.3c0-0.3,0-0.3,0.3-0.3v-0.3
			h-0.3c0,0,0-0.3-0.3-0.3c0,0,0,0,0-0.3s0.3-0.3,0.9-0.3c0.3-0.3,0.9,0,1.2-0.3c0-0.3,0-0.7,0-0.9h0c-0.3,0-0.9,0-1.2-0.3
			c0,0,0-0.3,0.3-0.7c0,0,0,0,0-0.3c0.7,0,0.9,0,1.2,0l0.3-0.3c0-0.3,0-0.3,0-0.7l-0.7-0.3v-0.3c0-0.3,0-0.3,0-0.3
			c-0.3,0-0.9,0-1.2,0c-0.3,0.3-0.3,0.3-0.3,0.3h-1.2c0,0,0-0.7-0.3-0.7c0.3,0.7,0.3,0,0-0.3c0,0,0,0-0.3,0c0-0.3,0-0.9,0-1.2
			c0.3,0,0.3,0,0.3,0v-0.3l0.3-0.3c0.3,0,0.7-0.3,0.9,0h0.3c0-0.3,0-0.3,0.3-0.3v-0.3l0.3-0.3V668h0.3c0,0,0.3,0,0.7-0.3
			c0-0.3,0-0.7,0-0.7c0,0.3,0,0,0,0c-0.3,0-0.3-0.3-0.7-0.3h-0.3c0.3,0,0,0,0-0.3l-0.3-0.3h-0.7v0.3c-0.3-0.3-0.3-0.7-0.3-0.7
			c0-0.3,0-0.3,0-0.7h-0.3v-0.7h0.7c0,0,0.3,0,0.3-0.3v-0.3c0,0.3,0,0.3,0,0c-0.3-0.3-0.3-0.3-0.3-0.7c0,0.3,0,0.3,0.3,0
			c0.3,0,0.7,0.3,0.9,0c0-0.3,0-0.3,0-0.7c-0.3,0-0.3,0-0.3,0c-0.3,0-0.3,0-0.3,0s0-0.3-0.3-0.3c0.3,0.3,0.3,0,0,0
			c0-0.3,0.3-0.3,0.3-0.7c0,0,0,0,0.3,0v-0.3c0,0,0-0.3,0-0.7h-0.3l-0.3-0.3c-0.3,0-0.3,0-0.3,0c0-0.3-0.3-0.3-0.3-0.3v-0.3
			c0.3,0,0.3-0.3,0.3-0.3c0-0.3,0.7-1.2,0-1.6c-0.9-0.3-1.2,0-1.6,0.7c-0.3,0-0.3,0.3-0.7,0.3c0,0,0,0-0.3,0s-0.7,0-0.9,0
			c-0.3-0.3-0.3-0.3-0.3-0.3v-0.3c0.3-0.3,0.3-0.3,0.3-0.3c0-0.3,0.3-0.7,0.3-0.7c0.3-0.3,0.7-0.3,0.9-0.7c0-0.3,0.3-0.7,0.3-0.9
			c0.3,0,0.3-0.3,0.7-0.3c0.3,0,0.3,0,0.7,0v-0.3h0.3c0-0.3-0.3-0.7-0.3-0.9c-0.3,0-0.7-0.7-0.7-0.7c-0.3,0-0.9,0.3-1.6,0.3
			c0,0.3,0,0.3-0.3,0.3v0.3h-0.3v-0.3c-0.3,0-0.3,0-0.3,0v-0.3c0,0.3,0,0,0,0c-0.4,0-0.4-0.3-0.4-0.3h-0.3v-0.3
			c-0.3-0.3,0.9-1.2,1.2-1.2c0-0.3,0-0.3,0.3-0.3v-0.3c0-0.3-0.3-0.9-0.3-1.2c0,0,0-0.3-0.3-0.3c0-0.3-0.3-0.3-0.7-0.3
			c0,0,0,0,0-0.3c-0.3,0-0.3,0-0.3,0c0-0.3,0-0.3,0-0.7c0.3,0,0-1.2-0.3-1.2c0,0-0.3,0-0.7,0c0-0.3,0-0.3-0.3-0.3c0-0.3,0-0.3,0-0.7
			v-0.3l0.3-0.3c0,0,0,0,0.3,0l-0.3-0.3c0-0.3,0-0.7,0-0.7V645c0,0,0-0.3,0-0.7c0,0,0,0,0-0.3h-0.3c0.3,0,0,0,0,0l-0.3-0.3
			c0-0.3-0.3-0.7-0.3-0.9c0.3,0,0.3-0.3,0.3-0.3c-0.3-0.3-0.7-0.9-0.9-0.9c0,0.3-0.3,0.3-0.3,0.3s0,0.3-0.3,0.3
			c-0.3-0.3-0.3-0.3-0.3-0.9c-0.3,0-0.3-0.7-0.3-0.9c0.3,0,0.3,0,0.3-0.3h-0.3l-0.3-0.3l-0.3,0.3c0,0.3-0.3,0-0.3,0
			c0-0.3,0-0.9,0-1.2h-0.7c0-0.3-0.3-0.7-0.3-0.9c0,0,0,0,0-0.3v-0.3c0,0,0.3,0,0.3-0.3c0,0,0,0,0-0.3v0.3c0.3,0,0.7,0,0.7,0v-0.3
			c0-0.3-0.3-0.7-0.7-0.7h-0.9c-0.3-0.3-0.9-0.3-1.2-0.3c0-0.3,0-0.7,0-0.7l0.3-0.4v-0.7c0,0,0.3,0,0.3-0.3c0.7,0,0.9-0.3,1.6-0.3
			c0.3,0,0.3,0,0.3,0c0.3,0,0.7-0.3,0.7-0.3c0-0.3,0-0.9-0.3-0.9c0-0.3,0-0.3-0.3-0.3c-0.7,0-1.6,0-2.2,0c-0.3,0.3-0.3,0-0.3,0.3
			c-0.3,0-0.3,0-0.7,0c0,0.3,0,0.3,0,0.7v1.5c0,0.3-0.3,0.7-0.3,0.7s0,0,0,0.3c-0.3,0-0.3,0-0.3,0v0.3h-0.3
			c-0.3,0.7-0.9,0.3-1.6,0.3h-0.3c0,0.3,0,0.3,0,0.3c-0.3,0-0.3,0-0.3,0c-0.3,0-0.3,0-0.3,0c-0.3,0-0.3,0-0.3,0
			c-0.3-0.3-0.3-0.3-0.3-0.7v-0.3c0-0.3-1.2-0.3-1.6-0.3c0-0.4,0-0.9,0-1.2l0.3-0.3c0.3,0,0.3-0.3,0.7-0.3l0.3-0.3c0,0,0-0.3,0-0.7
			h-0.3l-0.3-0.3c-0.3,0-0.3,0.3-0.7,0.3H363c0-0.7,0-1.2,0-1.9c0.3,0,0.9-0.3,0.9-0.3c0.3-0.3,0.3-0.3,0.3-0.3s0.3,0,0.3-0.4
			c-0.3,0.4,0,0.4,0,0c0-1.9-0.7-0.7-1.6-0.3c-0.7,0-1.9,0-1.9-0.7c0-0.3,1.2-0.7,1.6-0.7c0-0.7,0-0.9-0.3-1.2
			c-0.3,0-0.7-0.3-0.9-0.3c-0.3-0.3,0-0.9,0.3-0.9c0-0.3,0-0.3-0.3-0.3v-0.3h-0.3c0,0-0.3-0.3,0-0.7c0.9,0.3,0.9-0.3,0.9-0.9
			c-0.3,0-1.2-0.7-1.2-0.7c0.3-0.9,0.9,0,0.9-1.2c0-1.6,2.8-0.3,2.2-2.4c0-0.7,0.9,0,0.7-1.9c-0.3,0-0.9,0-0.9-0.3s0-0.7,0.7-0.7
			c0,0.3,0,0.3,0,0.7c0.7,0-0.3-1.2,1.2-1.2c0.9,0,2.8,0.3,3.4-0.7c0-1.6-0.9-0.7-2.2-0.9c0-0.7,0.3-0.9,0.3-1.2
			c-0.7-0.7,0.9-0.7,1.2-0.9c0-0.7-0.3-0.9-0.7-0.9c0-0.7,1.2-0.9,1.2-1.5c0-0.3-0.7-0.9-0.3-1.2c0.9-0.3,1.6-1.5,1.6,0.7
			c0,0,0.3,0,0.7,0c0,2.2,1.9,1.6,2.2,3.1c0.3,0,0.7,0,0.9,0c0.3-0.7-0.7-0.7-0.3-1.2c0.7-0.9-1.9-1.9-0.3-2.6
			c0.7,0,1.5,0.7,1.5-0.3c0,0,0.7-0.7,0.9-0.3c0.7,0,0.9,1.2,0.9,1.9c0.7,0.3,1.2,0.7,1.6-0.3c0-0.3,0-0.3,0-0.7
			c0.9,0,0.7-0.9,0.9-1.2c1.9,0,0.3,2.2,2.8,1.2c0-1.9-0.3-1.6,0.9-2.8c0.3-0.7,0-1.2,0-1.9c-2.4,0-0.7,2.8-2.2,2.4
			c-0.7-0.7-0.3-1.6-0.3-1.9c-1.2,0-0.3,1.2-1.6,1.2c0-0.9-0.3-0.3-0.9-0.3c0,0.7-0.3,1.6-0.9,1.6c0-0.3-0.3-0.3-0.3-0.7
			c-0.3-0.3-1.9-0.7-1.9-0.9c-0.3,0-0.3,0-0.3,0c0-0.9,0.3-2.6,1.6-2.6c0,0,0.9-1.2,0.3-1.2c-0.3,0,1.2-0.9,1.2-0.9
			c-2.8,0,0.9-1.9-2.2-1.9c0-0.3,0-0.9,0.3-0.9c0-1.9,1.6-1.5,1.6,0c0.3,0,0.7,0,0.9-0.3c0.3-0.9,0-2.2-0.7-2.8c0,0,0,0,0-0.3
			c0.9-0.7,0.9,0.3,1.5,0.3c-0.3,0,0.3-0.7,0.7-0.7c0.7,0.3,0.9,0.7,1.6,0.3c0-0.7-0.7-0.3-0.7-1.2c1.2-0.3,0.7-0.9,1.2-1.9
			c0.3,0,1.6-0.7,1.9-0.7c0-0.3,0-0.7,0-0.9c0,0,2.2-2.6,2.6-2.6c1.2,0,1.9-0.3,1.2,1.9c-0.7,0,1.2,1.2,1.2,1.2c0-0.9,0.7-0.9,0-1.9
			c0-1.2-0.3-0.3-0.7-1.2c0.9-1.9,1.6-0.3,1.6,0.9c0.3,0.3,0.3,0.3,0.7,0.3c0-0.3,0.7-1.6,0.7,0c1.2,0.9,2.8-0.9,0.9-0.9
			c0-0.9,0.9-0.9,0.9-1.6c-0.3,0-0.7-0.3-0.9-0.5c0-0.7,0.7-1.2,1.2-1.6c0-0.7,0-1.2,0.7-1.9c0-0.7,0.9-1.2,0.9-1.6
			c0-0.7,1.2-0.7,1.6-0.7l1.9-0.7l0.3-0.3V578c0,0.3,0,0,0,0s0,0,0-0.3c0.3,0,0.7-0.3,0.7,0c0.3,0,0.3-0.3,0.3-0.3v-0.3h0.3
			c0-0.3,0.7-0.3,0.9-0.3v0.9c0,0,0,0.3-0.3,0.3l0.3,0.3c0,0.3,0,0.3,0.3,0.3v0.3c0,0,0.3,0,0.7-0.3v-0.3h0.3v0.3
			c0.3,0.3,0.3,0.3,0.7,0.3h0.3c0,0,0.7-0.3,0.7-0.9c-0.3-0.3-0.3-0.7-0.9-0.7c-0.3,0-0.3-0.3-0.7-0.7c0-0.3-0.3-0.3-0.3-0.3
			l-0.3-0.9c0-0.3,0.3-1.2,0-1.2s-0.3,0.3-0.7,0c0-0.7-0.7-0.7-0.9-0.3c-0.3,0.3-0.3,0.7-0.7,0.7c-0.3,0-0.7-0.3-1.2,0
			c-0.7,0.3-0.9,1.2-0.9,1.2s-0.3-0.3-0.9,0s0,0.7-0.3,0.7c-0.7,0-0.9-0.3-1.2,0c-0.3,0.3,0,0.7-0.9,0.7s-1.6-0.3-1.6,0
			c-0.3,0.7,0,1.2-0.3,1.6l-0.9,0.9c0,0-1.2-0.9-1.2,0c0,0.3,0.9,2.2,0,1.9c0-0.3-0.3-0.3-0.7-0.3c-0.3,0-0.9,0-0.9-0.3
			c-0.3-0.7-0.7,0.3-0.9,0.3c-0.7,0-0.9,0.7-1.2,0.7c-0.9-0.3-1.6-0.3-2.6,0c-0.7,0.3-0.7,0.7-1.2,0.9c0,0-0.7,0-0.9,0.3
			c0,0.3,0.7,2.2,0.3,2.2c0,0.3-0.7,0.3-0.9,0.3c-0.3,0.3-1.2,1.2-1.6,1.2c-0.7,0-0.3-0.3-0.3-0.7c0-0.7-0.7-0.7-0.7-0.3
			c0,1.2-0.7,0.7,0.3,1.9c0.3,0.7,1.9,0.3,0.3,0.3c-2.6,0.3,1.9,0.9-1.2-0.3c-0.7,0-0.4,1.2-0.4,1.2l-0.7,0.9c0,1.2-0.7-0.7-0.9-0.3
			c0,0.7,0.3,0.9,0,0.9c-1.9,0-0.3-1.2-1.2-1.2s-0.9,0.7-0.3,0.9c0.7,0.7,0,1.6,0,1.9c-0.3,0.3-0.3,0.7-0.7,0.7
			c-0.3-0.3-0.7,0-0.7-0.7c0-1.2-0.7,0.3-0.7,0.7c0,0.3-2.4,0.3-1.9,0.9c0.7,0.3,0.7,0.3,0.9,0.3c0.3,0.3,0,0.5,0,0.9
			c0.7,0.7,0.3,0.9-0.7,0.7c-0.7,0,0.7-0.7,0-0.7c-0.9,0-1.2,0-2.4-0.3c-0.9-0.3-1.6,1.9-1.6,2.6s0.3,0.7,0,0.9
			c-0.3,0.3-0.3,0.7,0,0.7c0.3,0,2.6,1.2,2.2,1.2c0,0.3-0.3,0-0.3,0.3c-0.3,0.3,0,0.9-0.7,0.9c0,0-2.2-1.6-2.6-0.9
			c0,0.3,1.2,0.3,1.2,1.9c0,0-1.5-1.6-1.5-0.7c0,0.7,0.9,1.6,0.9,1.9c0,0.7-0.3,0-0.7,0c-0.7,0-0.9-0.3-0.9-0.3c0,0.3,0,0.7,0,0.7
			s-0.7,0.3-0.7,0.7c0,0.3-0.7,0.7-0.7,0.9s-0.3,1.2-0.9,0.7c0,0,0-0.7-0.3-0.3c-0.7,0.7-0.7,0.7,0,1.2c0.3,0.7-1.2,1.9-1.6,0.9
			c0-0.3,0.3-0.7,0-0.7c-0.7,0.3,0,0.7-0.9,0.7c-0.7,0-0.7-0.3-0.7,0c0.3,0.3,0.3,0.7,0.7,0.9c0,0.3,0,0.7,0,0.7s-0.9,0.3-0.9,0.7
			c0.3,0.3,0.7,1.2,0.7,1.2s-0.3,0.3-0.3,0.9c0,0.3,0.7,0.9,0,1.2c-0.7,0.7-0.3,0.9-0.9,0.9c-0.7,0-0.9-0.7-1.2-0.7
			c-0.3,0-0.9,0-0.9,0.3c0.3,0.7,0,0.9,0.3,1.2c0,0.3,0.3,0.9,0.3,0.9c0,0.3,0,1.2,0.3,1.6c0,0.3,0.3,0.9,0,1.2c0,0.7,0.3,1.2,0,1.2
			c-0.7,0-1.2-0.7-1.2-0.3c0,0.3,0,0.7-0.3,0.7c0,0-0.7,0.3-0.7-0.3c-0.3-0.7-0.3-0.7-0.7-0.9c0-0.3,0-0.7,0-0.9s0-0.9,0-0.9
			s0-0.9-0.3-0.7s-0.3,0.3-0.7,0.9c0,0.3-0.7,0.7-0.9,0.7c0,0-0.3,0,0,0.7c0,0.7,0,1.2,0.3,1.9s0.7,0.3,0.3,0.9
			c-0.3,0.3-0.7,0.9-0.7,1.2c0.3,0.3,0.3,0.7,0.3,0.7s0.9-0.7,1.2-0.9c0.3,0,0.9-0.3,1.2,0c0.3,0.3,0.3,0.9,0.3,0.9
			s-1.2,0.7-0.7,0.7c0.7,0.3-0.9,0.3-0.9,0.3c-0.3,0-0.9-0.3-0.9,0c0,0.3-0.9,0.3-0.7,0.7c0.3,0.3,0.7,0.3,0.7,0.7
			c0,0,0.3,0.9,0.7,0.3c0.3-0.3-0.7-0.7,0.3-0.7c1.2,0,1.2,0.7,1.6,0.7c0,0-0.9,0.9-0.3,0.9c0.3,0,0.7,0,0.7,0.3
			c0,0.3-1.2,0.3-1.2,0.7c0,0.3,0,0.7,0.3,0.7c0.7,0.3,0.7,0.3,0.9,0.7c0,0.4,0.3,0.9,0.7,1.2c0.3,0,0.9-0.3,0.9,0.3
			c0.3,0.3,0.3,0.9,0.3,0.9s-0.9,1.2-1.2,1.2c-0.3,0.3-0.7,0.3-0.7,0.7c0,0.7,0,0.9,0.3,1.6c0.7,0.3,0.7,0.9,0.7,1.5
			c-0.3,0.7-0.7,0.7-0.9,0.7s-1.2,0-1.2,0.3c0,0-0.3,0.3,0.3,0.7c0.3,0.3,1.2,1.2,1.6,1.2c0,0,0.7-0.3,0.7,0.7
			c0,0.9-0.3,1.2-0.3,1.2c0,0.3-0.3,0.3-0.7,0.7c-0.3,0.7,0,1.2-0.7,1.2c-0.7,0.3-1.9,0.3-2.2,0.3c0,0-0.3,0-0.7,0
			c-0.7-0.3-0.9,0-0.9,0.7c0,0.3,0,0.3-0.3,0.3s-0.9-0.3-1.2,0c-0.3,0.3-0.3,0.3,0.3,0.9c0.7,0.9,1.9,1.9,1.9,2.2
			c0,0.4,0.9,0.9,0.7,1.9c-0.3,0.9-0.7,0.9-0.3,1.6c0.7,0.7,0.7,1.2,0.9,1.5c0.7,0.7,1.2,0.7,1.6,1.6c0.3,1.2,0.7,1.2,0.7,1.6
			c0,0.3-0.3,0.3,0,0.9s0.7,0.9,0.7,1.2c0,0.3,0.3,0.9,0.3,1.5c0.3,0.9,0.9,1.2,0.9,1.9c0,0.7,0.7,1.6,0.3,2.6
			c-0.3,0.7-0.3,0.9-0.3,1.5c0,0.7,1.2,2.6,1.6,2.6c0.3,0,2.2,1.2,2.2,1.9c0.3,0.7,0.3,2.8,0,3.1c0,0.3-0.3,0.3-0.3,1.2
			c0,0.9,0.3,1.6,0,2.2c-0.3,0.9-0.7,1.6-0.9,2.2c0,0.3-0.7,0.7-0.7,0.9c0,0.5-0.3,2.2-0.7,2.4c-0.3,0.7-1.9,2.2-2.8,2.8
			c-0.9,0.3-1.9,0.7-2.6,0.9c-0.3,0,0,0.3-1.2,0.9c-1.2,0.3-1.6,0.3-2.2,0.7c-0.7,0.3-2.4,1.9-2.8,2.2c-0.3,0-2.2,0.7-2.6,0.9
			c-0.3,0,0,0.7-0.9,0.9s-1.6,0.3-2.2,0.5c-0.3,0.3-0.9,0.9-0.9,0.9s-0.7,0.9-0.7,1.2c-0.3,0.3-0.9,1.2-0.9,1.2
			S338,694.8,337.7,694.8z"/>
		<path class="st0" d="M405.6,576.5c0,0-0.3-0.3,0.7-0.3c0.7,0,0.7,0,0.7,0c0.3-0.3,0.3-0.7,0.7-0.7c0.3,0.3,0.7,0.3,0.9,0.7
			c0,0.3,0.3,0.7,0.3,0.9c-0.3,0.3-1.2,0.3-1.2,0.3s-0.7,0.3-0.7,0.7c0,0,0.3,0.7,0,0.3c-0.3,0-0.3-0.3-0.7-0.7
			c-0.3,0-0.7,0.3-0.7,0c0-0.3-0.3-0.9-0.3-0.9S406,576.8,405.6,576.5z"/>
		<path class="st0" d="M393.1,574c0,0-0.3,0-0.3-0.3c0.3-0.3,0.3-0.3,0.3-0.3c0.3,0,0.3-0.3,0.7,0c0,0.3,0,0.7,0,0.7
			C393.3,574.2,393.6,574,393.1,574z"/>
		<path class="st0" d="M368.1,590.9c0,0.3,0.3,0.7,0.3,0.7c0.3,0.3,0.7,0.3,0.9,0c0,0,0,0,0.3-0.3c0-0.7,0.3-0.7,0.3-0.7
			s0,0,0.3-0.7c0.3-0.3-0.7-0.3-0.7-0.3s-0.3,0.3-0.3,0.7c0,0.3-0.3,0-0.7,0c-0.3,0-0.3,0-0.3,0.3
			C368.8,590.9,368.1,590.9,368.1,590.9z"/>
		<path class="st0" d="M374.8,583c0,0-0.3,0-0.7,0c-0.3,0-0.3-0.3-0.3-0.7c0-0.3,0-0.7-0.3-0.9c-0.3,0-0.7,0.7-0.7,0.7
			s-0.7,0.7-0.3,0.9c0,0,0,0,0,0.7c0.3,0.3,0.3,0,0.7,0.3c0,0.3,0.3,0.5,0,0.9c-0.7,0.3-0.9,0.3-0.9,0.7c0,0.3,0.3,0.7,0,0.9
			c0,0-0.7,0-0.3,0c0.3,0.3,0.3,0.7,0.3,0.7s0.7,0,0.7-0.3c0.3-0.3,0.3-0.3,0.7-0.3c0.3,0,0.7,0,0.7,0s0.3-0.3,0.3-0.7
			c0.3-0.3,0.3-0.9,0.3-0.9s0.9,0.3,0.9,0c-0.3-0.7-0.7-0.3-0.9-0.3s-0.3-0.5,0-0.5s1.2-0.3,1.2-0.3s0.3-0.3-0.3-0.7
			C375.4,583,374.8,583,374.8,583z"/>
		<path class="st0" d="M376,582.5c0,0-0.3,0-0.3-0.3s0.3-0.7,0.3-0.7s0.3-0.9,0.3-0.3c0.3,0.3,0,0.7,0,0.7v0.7
			C376.4,582.5,376,582.7,376,582.5z"/>
		<path class="st0" d="M381.4,579.6c0,0-0.7-0.7-0.3-0.7c0.3-0.3,0.7,0,0.7-0.3s0.3-0.9,0.3-0.9s0.3,0,0.3-0.3
			c-0.3-0.3-0.7,0-0.7-0.3c0-0.3,0.7-0.7,0.7-0.7h0.7c0,0,0.3,0.3,0.3,0.7c-0.3,0.3-0.3,0.3-0.3,0.3s-0.3,1.2,0,1.6
			c0.3,0,0.3,0,0,0.3c-0.3,0.3-0.3,0.7-0.3,0.7h-0.7C382,579.9,381.7,579.6,381.4,579.6z"/>
		<path class="st0" d="M376.9,579c0,0-0.7,0.3-0.4,0c0-0.7,0-0.7,0-0.7s0-0.7,0.4-0.3c0.3,0,0.7,0.3,0.3,0.7
			C376.9,579,377.3,579,376.9,579z"/>
		<path class="st0" d="M375,573c0,0-0.7-0.3-0.7,0c-0.3,0.3,0,0.7,0,0.7v0.3c0.3,0,0.7-0.3,0.9-0.3C375.4,573.7,375.7,573,375,573z"
			/>
		<path class="st0" d="M374.2,569.2c0,0,0,0.3-0.3,0.3c-0.3,0.3-0.3,0.3-0.3,0.3c-0.3,0.3-0.3,0.7-0.7,0.7c-0.3,0.3-1.2,1.6-1.2,1.6
			s-0.9,0-0.7-0.3c0.3-0.3,0.7,0,0.7-0.7c0.3-0.7,0.7-0.7,0.7-0.9c0-0.3,0.3-0.3,0.3-0.3c0-0.3-0.3-0.7,0-0.7
			c0.3-0.3,0.7-0.3,0.7-0.3s0-0.3,0.3-0.3C373.8,568.7,374.2,568.3,374.2,569.2z"/>
		<path class="st0" d="M382,569.6c0,0,0.3-0.9,0.7-0.7c0.3,0,0.7,0,0.7,0.3c-0.3,0.3-0.7,0.3-0.7,0.7l0.3,0.3c0,0.3-0.7,0.3-0.7,0
			C382,569.9,382.4,569.9,382,569.6z"/>
		<path class="st0" d="M385.2,565.9c0.3,0.3,0.9,0,1.6,0c0.3,0,0,0.3,0.3,0.5c0,0-0.3,0-0.7,0.3c-0.7,0.3-0.7,0.3-0.9,0
			c0,0-0.3,0.3-0.7,0.3c-0.3,0.3-0.3,0.3-0.7,0.3c-0.3,0-0.3-0.3-0.3-0.3l-0.3-0.3c0,0,0.3-0.7,0-0.7c-0.3-0.3-0.7,0.3-0.7,0.3
			s0,0-0.7,0.3c-0.7,0.3-0.7-0.7-0.7-0.7l-0.3,0.3c-1.2,0.3-0.7,0-0.9-0.3s-0.3,0.7-0.7,0c0-0.3,0-0.9,0-0.9c0.3,0,0.9,0,1.2,0
			s0.3,0,0.3-0.3c0.3-0.3-0.3,0,0-0.7c0-0.7,0.3,0,0.3,0l0.7,0.3c0,0,0,0.3,0.3,0.7c0,0,0.3,0,0.7,0c0.3-0.3,0.3-0.3,0.3-0.3h0.7
			c0.3-0.3,0.3-0.3,0.7-0.7c0.3-0.3,0.3,0.3,0.3,0.3l0.7,0.7c0,0-0.3,0-0.7,0.3C384.8,565.6,385.2,565.9,385.2,565.9z"/>
		<path class="st0" d="M393.1,561.8c0,0-0.7-0.7-0.9-0.7c-0.3,0.3-0.7,0.3-0.7,0c0-0.7,0.3-0.9,0.7-1.2c0.3-0.3,1.9-1.2,1.9-1.2
			s0.3-0.3,0.7,0c0.7,0,1.2,0.3,1.6,0c0.3-0.3,0.7-0.3,0.7-0.3s0.3-0.3,0.7-0.3c0.3,0.3-0.3,0.7,0.3,0.7c0.9-0.3,0-0.7,0.7-0.3
			c0.7,0,0.7,0,0.7,0.3s0.3,0.7,0,0.7c-0.3,0.3-0.7,0.3-0.7,0.3l-0.9,0.3c0,0,0,0-0.3,0s-0.7-0.3-0.7,0c-0.3,0.3-0.7,0.7-0.7,0.9
			c0,0-0.3,0.3-0.7,0.3c0-0.3-0.7-0.3-0.3-0.7c0-0.3,0.3-0.7,0.3-0.7c-0.3-0.3-0.7-0.3-0.7-0.3s-0.9,0.7-0.9,0.9s0.7,0.7,0.7,0.7
			l-0.3,0.7h-1.1V561.8z"/>
		<path class="st0" d="M396.2,586.1l-0.7-0.3c0,0,0,0-0.3,0c0,0,0,0-0.3,0c0-0.3,0.3-0.7,0.3-0.7l0.3-0.3c0-0.3,0-0.7,0-0.7
			c0-0.3,0.3-0.3,0.3-0.3v-0.3c0,0,0,0-0.3,0c0-0.3,0-0.3,0-0.3l0.3-0.3c0.7-0.3,0.3-0.7,0-0.3c-0.3,0-0.3,0.3-0.7,0.3
			c0,0-0.3,0-0.7,0c0,0-0.3,0-0.3-0.3s0-0.7,0-0.7c0.3-0.3,0.3-0.3,0.3-0.3c0.3-0.3,0.7-0.7,0.7-1.2c0.3,0,0.7-0.3,0.9-0.3h0.3
			c0,0,0,0,0-0.3h0.7v0.3l-0.3,0.3v0.3h-0.3c0,0,0,0,0,0.3c0,0,0,0.3,0.3,0.3l0.3,0.3c0.3,0,0.7,0,0.7-0.3c0.3,0,0.3,0,0.3,0v-0.3
			h0.3c0,0.3,0.3,0.7,0.3,0.9c0.7,0,0.7,0.3,0.7,0.9c0.3,0,1.2,0,1.2,0h0.3c0,0.3,0.3,1.2-0.3,1.2c-0.3,0-0.7,0-1.2,0
			c0,0.3,0,1.2,0,1.5c0,0-0.3,0-0.3,0.3c-0.3,0-0.3,0-0.3,0s0,0-0.3,0.3c0,0,0,0-0.3,0c0,0-0.3,0.3-0.7,0c0,0-0.3,0-0.7,0v0.3
			c-0.3,0-0.3-0.3-0.7-0.3c0.3,0.3,0.3,0,0,0v-0.3H396.2z"/>
		<path class="st0" d="M397.7,579.6c0,0,0.3,0,0.3,0.3c0,0,0,0,0.3,0c0,0.3,0,0.3,0,0.7h0.9v-0.3h0.9c0-0.3,0-0.3,0.3-0.3
			c0-0.3,0-0.3,0-0.3s0,0,0-0.3c-0.3,0-0.9,0-0.9,0.3c-0.3,0-0.7,0-0.9-0.3c0,0-0.3,0.3-0.3,0H398L397.7,579.6
			C398.1,579.2,397.7,579.6,397.7,579.6z"/>
		<path class="st0" d="M364,622.2l0.3-0.3c0,0,0.3,0,0.3,0.3c0-0.3,0.3-0.3,0.3-0.3c0.3,0,0.3,0,0.3,0c0,0.3,0,0.3,0,0.3
			c-0.3,0-0.3,0.3-0.7,0.3h-0.3v-0.3C364.5,622.2,364.5,622.2,364,622.2z"/>
		<path class="st0" d="M351.8,609.6C351.8,610,351.8,609.6,351.8,609.6v0.3h0.3c0-0.3,0-0.3,0-0.3H351.8z"/>
		<path class="st0" d="M351.8,607.7v0.3h0.3c0.3,0,0,0,0.3,0c0,0-0.3,0,0,0h-0.3v-0.3C352.1,607.7,351.8,608.1,351.8,607.7z"/>
		<path class="st0" d="M360.9,603.7c-0.3,0-0.3-0.3-0.3-0.3l0.3-0.3c-0.3,0.3,0,0,0,0c0,0.3,0.3,0.3,0.3,0.3
			C360.9,603.4,360.9,603.4,360.9,603.7z"/>
		<path class="st0" d="M359.7,598.7v0.3V598.7C359.7,598.7,359.4,598.7,359.7,598.7z"/>
		<path class="st0" d="M361.3,599.6c0.3,0,0,0,0.3,0c-0.3,0-0.3-0.3-0.3-0.3V599.6C361.3,599.4,361.3,599.6,361.3,599.6
			C361.3,599.4,361.3,599.6,361.3,599.6z"/>
		<path class="st0" d="M361.6,600.8c-0.3,0-0.3,0-0.3,0h-0.4v0.3h0.3c0.3,0,0.3,0,0.3,0h0.3L361.6,600.8z"/>
		<path class="st0" d="M357.8,604.9c0,0,0.3-0.3,0.3-0.7v0.3h0.3c0,0.3-0.3,0.7-0.7,0.7v-0.3H357.8z"/>
		<path class="st0" d="M354.7,606.2c-0.3,0-0.7,0-0.9,0v0.3l-0.3,0.3c0,0,0,0.3,0,0.7v0.3c0-0.3,0,0,0,0c0-0.3,0,0-0.3,0
			c0.3-0.3,0.3,0,0,0.3v0.7h0.7c0,0,0-0.3,0.3-0.3v-0.3c0.3-0.3,0.7-0.7,0.7-1.2v-0.3c0,0,0,0,0.3,0
			C354.7,606.5,354.7,606.5,354.7,606.2z"/>
		<path class="st0" d="M388.6,595.8c-1.2-0.3-0.9-0.7-1.2-0.7c-0.9-0.7-0.3-1.6,0.3-0.9c0.3,0,0.3,0,0.7,0c-0.3,0-0.3,0,0,0.3h1.2
			c0,0,0,0.7,0,0.9L388.6,595.8z"/>
		<path class="st0" d="M414.1,765.9c0.3-0.4,0.3-0.4,0.3-0.4c0-0.3,0.7-0.7,0.7-0.9c0.3,0,0.3,0,0.3,0c0.7-0.3,1.9-0.3,2.4-0.7
			c0-0.7,0-1.2,0-1.9c0,0,0,0,0.3,0c0.3,0,0.7,0,0.7,0c0.3,0,0.7,0,0.7,0c0.3-0.3,0.9,0,0.9,0c0-0.3,0.3-0.7,0.3-0.9
			s0.3-0.7,0.7-0.9c0.3,0,0.7-0.3,0.7-0.3c0.3-1.2,0-2.6,0-3.5c0.3-0.3,0.3-0.7,0.7-0.7c0-0.3,0-0.7,0.3-0.9c-0.3,0-0.3,0-0.3,0
			c0-0.3,0-0.3,0-0.3h-0.3l-0.3-0.3c-0.3-0.3-0.3-0.7-0.3-0.9c0,0,0,0,0-0.3l0.3-0.3h0.3c0,0,0-0.3,0.3-0.3c-0.3-0.7,0-1.2-0.3-1.6
			c0-0.5,0-1.2,0-1.9c-0.3,0-0.7,0-0.7-0.3c-0.3,0-0.7,0-0.9,0s-0.7-0.3-0.7-0.3s0-0.3,0-0.7h-0.3c0,0,0.3-0.3,0.3-0.7
			c0,0,0.3,0,0.3-0.3c0.3,0,0.7,0,0.7,0c0.3,0,0.9,0,1.2,0v-0.3c0.3,0,0.7-0.3,0.9-0.3h0.3c0,0,0,0,0-0.3c0-0.7,0-1.9-0.3-2.6
			c0-0.3,0-0.9,0-1.2c-0.3-0.4-0.3-0.7-0.7-0.9v-0.3c0-0.3-0.3-1.2-0.3-1.6c-3.1-1.9-0.3-1.5-5.7-2.2c-0.3,0-0.7,0.3-0.9,0.3
			s-0.3,0.3-0.7,0.7h-0.3c-0.3,0.7-0.9,0.9-1.6,1.2c0,0-0.3,0.4-0.7,0.4c0,0.3,0,0.5,0,0.9c-0.3,0,0,0-0.7,0.3
			c0,0.3-0.7,0.3-1.2,0.3c-0.3,0.3-0.7,0.7-0.9,1.2c-0.3,0-0.7,0.3-0.9,0.7c0,0.3,0,0.3-0.3,0.7c0,0-0.3,0.3-0.3,0.7
			c-0.3,0.3-0.3,0.9-0.3,1.2c-0.3,2.2,0,4.7-0.7,6.9c0,0-0.3,0-0.3,0.3c0,0,0-0.3,0,0.3v0.9c0,0.3-0.3,0.3-0.3,0.3
			c0,0.3-0.3,0.3-0.3,0.7c-0.3,0-0.3,0-0.7,0.3c0,0.7-0.7,1.2-0.7,1.6c-0.9,0.3-1.5,0.7-2.2,0.7l-0.3,0.3c0,0,0,0.4-0.3,0.4
			c0,0.3,0,0.7,0,0.7c-0.3,0.3-0.7,0.7-1.2,0.7c0,0.3,0,0.7-0.3,0.7c0,0-0.3,0-0.7,0c-0.3,0.3-0.7,0.7-0.9,0.7
			c-0.3,0.3-0.9,0-0.9,0.3c-0.3,0-0.7,0.9-0.7,1.2c-0.3,0-0.7,0-0.9,0l-0.7,0.7c0,0.7,0.3,0.9,0,1.2s-0.3,0.7-0.3,0.7
			c0,0.3,0,0.7-0.3,0.9c0,0.4,0.7,1.9,0.9,2.2c0,0.9,2.2,1.2,3.8,1.2c0-0.3,0.3-0.3,0.7-0.3c0-0.7,1.6-0.7,1.6-0.7
			c0.3,0,0.9,0,0.9-0.3c0.3,0,0.7,0,0.7,0c0.3,0,0.3,0,0.3,0c0.3-0.3,0.3-0.3,0.3-0.3c0.3,0,0.3,0,0.3,0c0.7,0,0.9-0.3,1.2-0.3
			c0.3,0,1.2,0,1.6,0c0-0.3,0.7-0.3,0.9-0.3c0,0,1.9-0.7,1.9-0.3c0.3,0,0.7,0,0.7,0.3C411.5,766.8,414.1,767.1,414.1,765.9
			 M376.9,763c-0.4,0-0.7,0.4-0.7,0.4H376c0,0.3,0,0.3,0,0.7c-0.3,0-0.3,0.3-0.7,0.3H375c-0.3-0.7-0.3-0.7-1.2-0.7l-0.7-0.3
			c0.7,0.3,0,0,0,0c-0.3,0-0.3,0-0.7,0c0-0.4,0-0.7-0.3-0.7s-0.3-1.2-0.3-1.5h-0.3c0-0.3,0-0.9,0-1.2c0,0,0,0-0.3-0.3v-0.5
			c0-0.7,0.7-0.7,0.9-0.7l0.3,0.3c0,0.3,0,0.3,0,0.7c0,0.3,0.3,0.3,0.7,0.3c0.3,0,0.3,0,0.7,0c0,0,0,0,0,0.3c0-0.3,0-0.3,0.3,0v0.4
			c0.9,0,1.6,0.3,2.2,0.7h1.2c0,0,0,0,0.3,0c0,0,0,0,0.3,0l0.3-0.3v-0.3h0.3c0.7,0,1.2-0.4,1.9-0.4c0.3,0,0.7-0.3,0.9-0.3h0.3
			c0-0.3-0.3-0.3-0.3-0.7c0-0.3,0-1.2,0-1.6c-0.3-0.3-0.7-1.5-0.3-1.9l0.3-0.7c0-0.3,0-0.7,0.3-0.7c0,0,0-0.3,0-0.7
			c0,0,0.3,0,0.3-0.3c0,0,0.3-0.3,0.7-0.3c0.7,0,0.9-0.3,1.5-0.3c0,0.3,0,0.3,0.3,0.3c0,0,0,0,0,0.3s0,1.6,0,2.2
			c0,0.7,0.3,1.5,0.3,2.2c0.3,0.7,0.3,1.6,0.3,2.6c0,0.7,0,1.2,0,1.5c-0.3,0-0.7,0.3-0.7,0.7c0,0.3,0,0.7,0,1.2l-0.3,0.3
			c-0.3,0.3-0.3,0.7-0.3,0.9c0,0.3,0,0.3,0,0.7c-0.3,0.3-0.3,0.7-0.7,0.9c-1.2,0-2.2,0-3.4-0.3h-0.3c0-0.3,0-0.7,0-0.9
			c0-0.3-0.3-0.7-0.3-0.9c-0.3,0-0.3-0.3-0.3-0.3c-0.3,0-0.7,0-0.7,0l-0.3-0.3c0-0.3,0-0.3,0-0.7l-0.3-0.4c0,0,0,0-0.3,0
			C377.6,763,377.3,763,376.9,763z M362.3,755.9c0,0,0-0.3-0.3-0.3c-0.3,0-0.7-0.3-0.9-0.3s-0.3,0-0.3,0v-0.3l-0.3-0.3
			c0,0,0-0.3-0.3-0.3v-0.3c0,0,0,0,0-0.3c0,0,0-0.3,0-0.5c-0.3,0-0.3,0-0.3,0c0-0.7-0.7-0.9-0.9-1.2l-0.3-0.3c0-0.7,0.3-0.7,0.3-0.9
			c0.3-0.3,0.3-0.7,0.3-0.9c0,0,0.7-0.9,0.7-1.2l0.3-0.3c0-0.3,0.3-0.5,0.3-0.5c0.3-0.4,0.3-0.7,0.3-0.9v-0.3c0.3,0,0.7-0.7,0.9-0.7
			c0.3,0,0.3,0,0.7,0c0-0.3,0.3-0.3,0.3-0.3c0.3,0,0.3-0.3,0.3-0.3h0.3l0.3-0.4V745c0-0.3,0.7-0.7,0.7-0.9c0,0,0.3-0.7,0.7-0.7
			c0,0,0-0.3,0.3-0.3c0,0,0.9-0.7,1.2-0.7c0-0.3,0-0.3,0.3-0.3l0.3-0.3c0.3,0,0.3,0,0.3,0h0.7v0.3c0,0.9,0,1.9-0.3,3.1
			c-0.3,0-0.7,0.9-0.9,1.2s-0.3,0.3-0.3,0.7c-0.3,0-0.9,0.7-1.2,0.7v0.4c-0.3,0.3-0.7,0.3-0.7,0.5c-0.3,0.9-0.3,2.2-0.3,3.1v0.3
			l-0.3,0.3l-0.3,0.3c0,0.3,0,0.3-0.3,0.3c0,0.7-0.3,0.9-0.3,1.2c0,0.3,0,0.3-0.3,0.3c0,0,0,0,0,0.3v0.9c0,0-0.3,0-0.3,0.3v0H362.3z
			"/>
		<path class="st0" d="M344.2,687.3c0-0.3,0-0.3,0-0.3c0.3-0.3,0.3-0.7,0.7-0.3c0.3,0.3,0,0.3-0.3,0.7
			C344.6,687.3,344.2,687.6,344.2,687.3z"/>
		<path class="st0" d="M337.1,691.6l-1.5-5.9l0.3,0.3c0.3,0,0.3,0,0.3,0h0.3c-0.3,0,0,0,0,0.3h0.3l0.3,0.3c0.3,0,0.7,0,0.7,0.3
			c0.3,0,0.3,0,0.3,0c0.7-0.3,1.2,0,1.5,0.3v1.9l-0.3,0.3c0,0.3-0.3,1.2-0.3,1.5c-0.3,0.3-0.9,0.3-1.2,0.3c0,0-0.3,0-0.7,0
			C337.1,691.6,337.1,691.6,337.1,691.6z"/>
		<path class="st0" d="M386.2,866.1c-0.1,0-0.3,0-0.4,0c-0.7-0.1-1.2-0.7-1.5-1.4c-0.5-1.6-52.5-170-85.5-318.5
			c-0.1-0.5,0-1.1,0.3-1.5c0.3-0.4,0.7-0.8,1.2-0.8c0.3-0.1,33.2-7,81.9-7c49.5,0,124.1,7.4,198.3,42.5c0.5,0.3,0.8,0.7,1.1,1.2
			c0.1,0.5,0.1,1.1-0.1,1.6c-1.1,1.9-106.9,187.3-193.7,283.3C387.2,865.8,386.7,866.1,386.2,866.1z M303,547.4
			c30.4,136.3,76.5,288.5,84,312.8c81.4-91.2,178.6-258.8,189.8-278.2c-72.8-34-145.9-41.2-194.6-41.2
			C340.6,540.7,310.7,545.9,303,547.4z"/>
		<path class="st0" d="M382.4,450c0,0-0.3,0-0.3-0.3c0-0.3,0-0.7,0-0.7s-0.3,0-0.3-0.3s0.3-0.7,0-0.3c-0.3,0-0.9,0-0.9,0l-0.9-0.3
			l-0.3-0.3c0,0-0.7-0.3-0.3-0.5c0-0.7,0.3-0.7,0.7-0.3c0,0,0,0.3,0.3,0.5c0.3,0,0.9,0,0.7-0.3l-0.3-0.3c0,0,0.3-0.3,0.7-0.3
			c0.3,0,0.3,0.3,0.7,0.3c0.3,0,1.9,0,1.9-0.3c0-0.3-0.7-0.3-0.3-0.7c0.3-0.3,0.3-0.3,0.3-0.3s0-0.9,0.3-0.7
			c0.3,0.3,0.3,0.7,0.3,0.7s0.3-0.7,0.7-0.7c0.3-0.3,0.9-0.9,0.7-0.9c0-0.3-0.7-0.3-0.9,0c-0.3,0-0.3,0.3-0.7,0.3
			c-0.3,0-0.3,0-0.7,0.3c-0.3,0-0.7,0-0.7-0.3c-0.3-0.3,0-0.7,0-0.7c0.3-0.3,0.7,0.3,0.7,0c0.3-0.3,0.9-0.3,0.9-0.3
			c0.3,0,1.2,0,1.2,0s0.7,0.7,0.7,0.3c0.3,0,0.3-0.7,0-0.7c-0.3-0.3-0.7-0.3-0.9-0.7c0-0.3-0.7-0.3-0.7-0.3s-0.7,0-0.7-0.3
			c-0.3-0.3,0-0.7-0.3-0.9c-0.3-0.3-0.9-0.7-0.9-0.7l-0.3-0.3c0,0,0.3-0.3,0.7-0.3c0.3,0.3,0,0.3,0.3,0.7c0.3,0,0.9,0,0.9,0.3
			c0,0.3,0.3,0.7,0.3,0.7h0.9c0,0,1.2,0.3,1.2,0s-0.3-0.7,0-0.7c0.7-0.3,1.2-0.3,1.6,0c0,0.3,0.3,0,0.7,0.3c0,0,0,0,0.7,0
			c0.3,0,0.3,0,0.7,0.3c0.3,0,0.9,0,0.9-0.3c0-0.3-0.3-0.7,0.3-0.7c0.3,0,0.7,0.3,0.9,0.3c0,0.3,0.3,0.3,0,0.7
			c0,0.3-0.7,0.3-0.7,0.3c-0.3,0.3-0.7,0.3-0.3,0.7c0,0.3,0.3,0.9,0,0.9s-0.9-0.3-0.9-0.3c-0.3,0.3-0.7,0.9-0.7,0.9s0,0.3-0.3,0.7
			l-0.3,0.3c0,0-0.7,0.7-0.7,1.2c0,0.3-0.7,0-0.3,0.3c0,0.3-0.3,0.7-0.7,0.7c-0.3,0-0.7,0.3-0.7,0c-0.3-0.3-0.3-0.3-0.7-0.3
			c-0.3,0.3-0.7,0.3-0.7,0.3s-0.9,0.3-0.9,0c0-0.3,0-0.7-0.3-0.3c-0.3,0-0.7,0.3-0.3,0.7c0.3,0.3,0.7,0.3,0.7,0.3s0.3,0.3,0.3,0.7
			c-0.3,0-0.7,0.3-0.9,0.3c0,0-0.3-0.3-0.7,0c0,0-0.3,0-0.3,0.3s0,0.7-0.3,0.7C382.6,449.7,382.6,450,382.4,450 M380.5,446.2
			c0,0,0.3-0.3,0.7-0.7c0-0.3-0.3-0.3-0.3-0.3l-0.3,0.3c0,0-0.3,0-0.7,0.3c-0.3,0,0-0.7,0-0.9c0-0.3-0.7,0-0.7,0.3
			c0,0-0.7,0.3-0.7,0c0-0.3,0-0.3-0.3-0.7c0-0.3-0.7,0-0.7,0s-0.3,0.3-0.3,0.7c0,0,0.9,0.3,1.2,0.3c0-0.3,0,0.3,0.3,0.3
			s0.7,0.3,0.7,0.7C379.8,446.9,380.5,446.2,380.5,446.2z M377.6,444l-0.3-0.3l0.3-0.3c0.3,0,0.7,0,0.7,0.3
			C377.9,444,377.9,444.4,377.6,444z M385.7,440c0,0.3,0,0.7,0,0.7c0.3,0,0.3-0.7,0.7-0.9c0-0.3-0.3-0.3-0.7-0.3
			c-0.3,0-0.7-0.3-0.7-0.3c-0.3-0.3-0.7-0.3-0.7,0c-0.3,0.3,0,0.3,0.3,0.7c0,0.3,0.7,0,0.7,0L385.7,440z M389.8,440c0,0,0.3,0,0.7,0
			c0.3,0,0.7-0.7,0.3-0.7c-0.3-0.3-0.7,0-0.7,0s-0.3,0-0.3-0.3c-0.3-0.3-0.9-0.3-1.6,0c-0.9,0-0.3,0-0.3,0.3s0.7,0,0.9,0
			C389.3,439.3,389.8,440,389.8,440z M391.4,451.2c0.3,0.3,0.3,0,0.3,0s0-0.3-0.3-0.7c-0.3-0.5,0-0.5,0-0.9c-0.3-0.3-0.3,0-0.7-0.3
			c-0.3-0.3,0.3-0.7,0.3-0.7c0.3,0,0.7,0.7,0.9,0.7c0.7,0,0.3,0.7,0.9,0.7c0.3,0.3,1.6,0,1.9-0.3c0.3,0,0.3-0.7,0.3-0.7l-0.9,0.7
			c0,0-0.7,0-0.9,0c0-0.3,0.3-0.9,0.3-1.2l-0.9-0.7c0,0-0.3-0.5,0-0.5s0.9,0.3,0.9,0.3c0.3,0.3,0.7,0.7,0.9,0.9c0,0,0.3-0.3,0.7-0.3
			c0-0.3,0-0.3,0.3-0.3s0.7,0.3,0.9,0.7c0.3,0.3,0.3-0.3,0-0.7c0-0.3,0-0.5,0-0.5s-0.3-0.3-0.7-0.3c-0.7-0.3-0.9,0-0.9,0
			s0-0.3,0-0.7c-0.3-0.3-0.7-0.3-0.7-0.3h-0.7v-0.3c0,0,0.9-0.3,1.2,0c0.3,0,0.3,0.3,0.7,0.3c0.3,0.3,1.6,0,1.6,0s0.7,0.3,0.9,0.7
			c0.3,0.3,0.3,0,0.7-0.3c0-0.3,0-0.3,0.7,0c0.3,0,0.3-0.7,0.3-0.7s-0.3,0-0.7,0c-0.3,0-0.3-0.3-0.3-0.7c0-0.3,0.9,0,0.9,0.3
			c0.3,0,0.7-0.3,0.9-0.7c0-0.3,0.7,0,0.7,0h0.9c0,0,0-0.3,0.7-0.3s0-0.3,0.3-0.7c0.3,0,0-0.3,0-0.3l-1.2-0.3c0,0-0.9,0-1.2-0.3
			c0-0.3,0.3-0.7,0.3-0.7l0.7,0.3c0,0,0.7,0,0.9,0s0-0.3,0-0.7c-0.3-0.3,0.3-0.3,0.3-0.3s-0.3-0.3-0.7-0.7c0-0.3-0.9,0-1.2,0
			c-0.7,0-0.3-0.3-0.7-0.3c-0.3,0-0.7,0.3-0.7,0.3s-0.3,0-0.7,0.3c0,0.3,0,0.3,0.3,0.7c0,0.7,0,0.3,0.7,0.7c0.7,0.7,0,0.3,0,0.7
			c0,0.3-0.7,0.3-0.7,0.3l-0.3-0.7c-0.3-0.3-0.7-0.3-0.7-0.3s0-0.3-0.3-0.7c0-0.3,0,0,0-0.3c-0.3-0.3-0.9-0.3-0.9-0.3l0.3-0.7
			l0.3,0.3c0,0,0.7,0.3,0.9,0.3c0.3-0.3,0-0.9,0-1.2c0-0.3-0.9-0.3-1.2-0.3c-0.3,0-0.3,0.3-0.3,0.3c-0.3,0.3-0.7,0-0.9,0
			c-0.3,0-0.9-0.9-0.9-0.9c-0.3,0-0.7-0.3-0.7,0c0,0.3,0.3,0.9,0.7,0.9c0.3,0,0.3,0,0.3,0.3c0,0.3-0.3,0.3-0.7,0.3
			c-0.7,0-0.3,0.3-0.3,0.3s-0.3,0-0.7,0c-0.3,0.3-0.3,0.7-0.3,0.7s0.7,0,0.9,0c0.3,0.3,0.7,0.3,0.9,0.7c0.3,0.3-0.7,0.3-0.9,0
			s0,0.7-0.7,0.7c-0.3,0-0.7-0.7-0.7-0.7s0,0.3-0.3,0.7c0,0.3,0.9,0.3,0.9,0.3v0.9c0,0,0.3,0,0.7,0.7c0.3,0.3-0.3,0.3-0.7,0.3
			c-0.3,0.3,0-0.5,0-0.5l-0.9-0.3c0,0-0.7,0.3-0.7,0.7c-0.3,0-0.9,0.7-0.9,0.7s-0.9,0.3-1.2,0.3c0,0-0.3,0.9-0.7,1.2
			c0,0.3,0,0.3,0,0.5c0,0.7,0.3,0.3,0.3,0.7c0,0.3-0.3,0-0.7,0c-0.3,0.3,0,0.7,0.3,0.7s0.3,0.7,0,0.9c0,0.3,1.2,0.9,1.2,0.9
			L391.4,451.2z M382.9,439.3c0,0-0.3,0-0.3-0.3c-0.3-0.3-0.3-0.7,0-0.7s0.3,0.7,0.3,0.7S383.3,439.3,382.9,439.3z M380.5,437.4
			c0,0-0.3-0.3,0-0.3c0,0,0.7,0,0.3,0C380.7,437.4,380.7,437.4,380.5,437.4z M389.3,449.7c0,0,0.3-0.7,0-0.7c-0.3,0-0.7-0.3-0.7-0.3
			l-0.3-0.7c0,0,0,0.7,0,0.9c0.3,0,0.7,0.3,0.7,0.3C388.6,449.7,389,450,389.3,449.7z M393.1,452.6c0,0,0.7,0,0.7-0.3
			c0-0.4,0-0.7-0.3-0.4c-0.3,0-0.7,0-0.7,0.4C392.7,452.3,392.7,452.3,393.1,452.6z M397.7,448.1c0,0-0.3,0-0.3-0.3s0-0.3,0.3-0.3
			s0.3,0,0.3,0.3C398.1,448.1,398.1,448.1,397.7,448.1z"/>
	</g>
</g>
</svg>
