<?xml version="1.0" encoding="utf-8"?>
<!-- Generator: Adobe Illustrator 23.0.1, SVG Export Plug-In . SVG Version: 6.00 Build 0)  -->
<svg version="1.1" id="Capa_1" xmlns="http://www.w3.org/2000/svg" xmlns:xlink="http://www.w3.org/1999/xlink" x="0px" y="0px"
	 viewBox="0 0 1366 768" style="enable-background:new 0 0 1366 768;" xml:space="preserve">
<style type="text/css">
	.st0{fill:#FFFFFF;}
</style>
<g>
	<g>
		<polygon class="st0" points="314.3,237.9 571.1,237.9 666.6,177.4 409.8,177.4 		"/>
	</g>
	<g>
		<polygon class="st0" points="314.3,346.6 571.1,346.6 666.6,286.1 409.8,286.1 		"/>
	</g>
	<g>
		<polygon class="st0" points="314.3,459.2 571.1,459.2 666.6,398.7 409.8,398.7 		"/>
	</g>
	<g>
		<polygon class="st0" points="314.3,567.8 571.1,567.8 666.6,507.3 409.8,507.3 		"/>
	</g>
	<path class="st0" d="M861.6,88.6c-84.2,0-152.5,68.3-152.5,152.5v17.7c0,70.2,99.8,232.8,124.6,301.6c6.8,18.9,18.2,50.8,27.8,51
		c9.8,0.3,24.1-38,30-54.7C915.7,489,1014,329.3,1014,258.8v-17.7C1014,156.9,945.8,88.6,861.6,88.6z M861.5,341.6
		c-52.3,0-94.7-42.4-94.7-94.7s42.4-94.7,94.7-94.7s94.7,42.4,94.7,94.7S913.8,341.6,861.5,341.6z"/>
</g>
</svg>
