<?xml version="1.0" encoding="utf-8"?>
<!-- Generator: Adobe Illustrator 23.0.1, SVG Export Plug-In . SVG Version: 6.00 Build 0)  -->
<svg version="1.1" id="Capa_1" xmlns="http://www.w3.org/2000/svg" xmlns:xlink="http://www.w3.org/1999/xlink" x="0px" y="0px"
	 viewBox="0 0 1366 768" style="enable-background:new 0 0 1366 768;" xml:space="preserve">
<style type="text/css">
	.st0{fill:#FFFFFF;}
</style>
<g>
	<g>
		<polygon class="st0" points="408,287.94 596.03,287.94 665.92,243.62 477.9,243.62 		"/>
	</g>
	<g>
		<polygon class="st0" points="408,367.5 596.03,367.5 665.92,323.18 477.9,323.18 		"/>
	</g>
	<g>
		<polygon class="st0" points="408,449.94 596.03,449.94 665.92,405.62 477.9,405.62 		"/>
	</g>
	<g>
		<polygon class="st0" points="408,529.5 596.03,529.5 665.92,485.18 477.9,485.18 		"/>
	</g>
	<path class="st0" d="M808.7,178.64c-61.65,0-111.63,49.98-111.63,111.62v12.93c0,51.38,73.07,170.47,91.26,220.81
		c5,13.83,13.33,37.17,20.36,37.35c7.16,0.19,17.64-27.85,21.98-40.02c17.65-49.55,89.63-166.48,89.63-218.14v-12.93
		C920.32,228.62,870.34,178.64,808.7,178.64z M808.68,363.82c-38.28,0-69.32-31.03-69.32-69.32s31.03-69.32,69.32-69.32
		S878,256.22,878,294.5S846.97,363.82,808.68,363.82z"/>
</g>
</svg>
